<mxfile host="Electron" agent="Mozilla/5.0 (X11; Linux x86_64) AppleWebKit/537.36 (KHTML, like Gecko) draw.io/27.0.9 Chrome/134.0.6998.205 Electron/35.4.0 Safari/537.36" version="27.0.9">
  <diagram name="PÃ¡gina-1" id="NvoXITJhPcke8yOEHtyu">
    <mxGraphModel dx="2066" dy="884" grid="1" gridSize="10" guides="1" tooltips="1" connect="1" arrows="1" fold="1" page="1" pageScale="1" pageWidth="1169" pageHeight="827" background="none" math="0" shadow="0">
      <root>
        <mxCell id="0" />
        <mxCell id="1" parent="0" />
        <mxCell id="1yYehOF_DNbkC2h0I6DK-33" value="" style="whiteSpace=wrap;html=1;labelBackgroundColor=none;dashed=1;" vertex="1" parent="1">
          <mxGeometry x="125.5" y="720" width="1103" height="331" as="geometry" />
        </mxCell>
        <mxCell id="1yYehOF_DNbkC2h0I6DK-64" value="" style="whiteSpace=wrap;html=1;labelBackgroundColor=none;fillColor=#f5f5f5;fontColor=#333333;strokeColor=#666666;dashed=1;dashPattern=8 8;" vertex="1" parent="1">
          <mxGeometry x="470" y="810" width="750" height="230" as="geometry" />
        </mxCell>
        <mxCell id="KTp20yquHkzDqrLuCGeQ-23" value="" style="whiteSpace=wrap;html=1;labelBackgroundColor=none;dashed=1;" parent="1" vertex="1">
          <mxGeometry x="127" y="20" width="1103" height="680" as="geometry" />
        </mxCell>
        <mxCell id="KTp20yquHkzDqrLuCGeQ-13" value="" style="whiteSpace=wrap;html=1;labelBackgroundColor=none;fillColor=#f5f5f5;fontColor=#333333;strokeColor=#666666;" parent="1" vertex="1">
          <mxGeometry x="188" y="36" width="910" height="574" as="geometry" />
        </mxCell>
        <mxCell id="1yYehOF_DNbkC2h0I6DK-16" value="" style="whiteSpace=wrap;html=1;labelBackgroundColor=none;fillColor=#f5f5f5;fontColor=#333333;strokeColor=#666666;dashed=1;dashPattern=8 8;" vertex="1" parent="1">
          <mxGeometry x="272" y="60" width="460" height="190" as="geometry" />
        </mxCell>
        <mxCell id="KTp20yquHkzDqrLuCGeQ-20" value="" style="whiteSpace=wrap;html=1;labelBackgroundColor=none;" parent="1" vertex="1">
          <mxGeometry x="936" y="386" width="120" height="200" as="geometry" />
        </mxCell>
        <mxCell id="KTp20yquHkzDqrLuCGeQ-1" value="" style="shape=image;html=1;verticalAlign=top;verticalLabelPosition=bottom;labelBackgroundColor=none;imageAspect=0;aspect=fixed;image=https://cdn3.iconfinder.com/data/icons/document-icons-2/30/647708-excel-128.png;fillColor=#5D7F99;strokeColor=#D0CEE2;fontColor=#1A1A1A;" parent="1" vertex="1">
          <mxGeometry x="30" y="321.5" width="49" height="49" as="geometry" />
        </mxCell>
        <mxCell id="KTp20yquHkzDqrLuCGeQ-2" value="" style="sketch=0;outlineConnect=0;fontColor=#1A1A1A;fillColor=#5D7F99;strokeColor=none;dashed=0;verticalLabelPosition=bottom;verticalAlign=top;align=center;html=1;fontSize=12;fontStyle=0;aspect=fixed;pointerEvents=1;shape=mxgraph.aws4.file_cache_s3_linked_datasets;labelBackgroundColor=none;" parent="1" vertex="1">
          <mxGeometry x="616" y="306" width="80" height="80" as="geometry" />
        </mxCell>
        <mxCell id="KTp20yquHkzDqrLuCGeQ-3" value="&lt;span&gt;&lt;font style=&quot;color: rgb(0, 0, 0);&quot;&gt;Fuentes&lt;/font&gt;&lt;/span&gt;" style="text;html=1;align=center;verticalAlign=middle;resizable=0;points=[];autosize=1;strokeColor=none;fillColor=none;fontColor=#1A1A1A;labelBackgroundColor=none;" parent="1" vertex="1">
          <mxGeometry x="20" y="370.5" width="70" height="30" as="geometry" />
        </mxCell>
        <mxCell id="KTp20yquHkzDqrLuCGeQ-103" style="edgeStyle=orthogonalEdgeStyle;rounded=0;orthogonalLoop=1;jettySize=auto;html=1;exitX=1;exitY=0.5;exitDx=0;exitDy=0;exitPerimeter=0;strokeColor=#736CA8;startArrow=classic;startFill=1;labelBackgroundColor=none;fontColor=default;" parent="1" source="KTp20yquHkzDqrLuCGeQ-5" target="KTp20yquHkzDqrLuCGeQ-2" edge="1">
          <mxGeometry relative="1" as="geometry" />
        </mxCell>
        <mxCell id="KTp20yquHkzDqrLuCGeQ-114" style="edgeStyle=orthogonalEdgeStyle;rounded=0;orthogonalLoop=1;jettySize=auto;html=1;exitX=0.5;exitY=1;exitDx=0;exitDy=0;exitPerimeter=0;strokeColor=#736CA8;entryX=-0.014;entryY=0.525;entryDx=0;entryDy=0;entryPerimeter=0;labelBackgroundColor=none;fontColor=default;" parent="1" source="KTp20yquHkzDqrLuCGeQ-5" target="KTp20yquHkzDqrLuCGeQ-17" edge="1">
          <mxGeometry relative="1" as="geometry" />
        </mxCell>
        <mxCell id="KTp20yquHkzDqrLuCGeQ-5" value="" style="sketch=0;points=[[0,0,0],[0.25,0,0],[0.5,0,0],[0.75,0,0],[1,0,0],[0,1,0],[0.25,1,0],[0.5,1,0],[0.75,1,0],[1,1,0],[0,0.25,0],[0,0.5,0],[0,0.75,0],[1,0.25,0],[1,0.5,0],[1,0.75,0]];outlineConnect=0;fontColor=#1A1A1A;fillColor=#5D7F99;strokeColor=#D0CEE2;dashed=0;verticalLabelPosition=bottom;verticalAlign=top;align=center;html=1;fontSize=12;fontStyle=0;aspect=fixed;shape=mxgraph.aws4.resourceIcon;resIcon=mxgraph.aws4.glue;labelBackgroundColor=none;" parent="1" vertex="1">
          <mxGeometry x="451" y="306" width="80" height="80" as="geometry" />
        </mxCell>
        <mxCell id="KTp20yquHkzDqrLuCGeQ-7" value="" style="outlineConnect=0;dashed=0;verticalLabelPosition=bottom;verticalAlign=top;align=center;html=1;shape=mxgraph.aws3.virtual_private_cloud;fillColor=#5D7F99;strokeColor=#D0CEE2;fontColor=#1A1A1A;labelBackgroundColor=none;" parent="1" vertex="1">
          <mxGeometry x="192" y="38" width="60" height="40" as="geometry" />
        </mxCell>
        <mxCell id="KTp20yquHkzDqrLuCGeQ-107" style="edgeStyle=orthogonalEdgeStyle;rounded=0;orthogonalLoop=1;jettySize=auto;html=1;strokeColor=#736CA8;labelBackgroundColor=none;fontColor=default;" parent="1" source="KTp20yquHkzDqrLuCGeQ-8" target="KTp20yquHkzDqrLuCGeQ-2" edge="1">
          <mxGeometry relative="1" as="geometry" />
        </mxCell>
        <mxCell id="1yYehOF_DNbkC2h0I6DK-23" style="edgeStyle=orthogonalEdgeStyle;rounded=0;orthogonalLoop=1;jettySize=auto;html=1;strokeColor=#736CA8;fontColor=default;labelBackgroundColor=none;" edge="1" parent="1" source="KTp20yquHkzDqrLuCGeQ-8" target="KTp20yquHkzDqrLuCGeQ-10">
          <mxGeometry relative="1" as="geometry" />
        </mxCell>
        <mxCell id="KTp20yquHkzDqrLuCGeQ-8" value="" style="sketch=0;outlineConnect=0;fontColor=#1A1A1A;fillColor=#5D7F99;strokeColor=none;dashed=0;verticalLabelPosition=bottom;verticalAlign=top;align=center;html=1;fontSize=12;fontStyle=0;aspect=fixed;pointerEvents=1;shape=mxgraph.aws4.rds_instance;labelBackgroundColor=none;" parent="1" vertex="1">
          <mxGeometry x="616" y="469" width="80" height="80" as="geometry" />
        </mxCell>
        <mxCell id="KTp20yquHkzDqrLuCGeQ-9" value="" style="sketch=0;points=[[0,0,0],[0.25,0,0],[0.5,0,0],[0.75,0,0],[1,0,0],[0,1,0],[0.25,1,0],[0.5,1,0],[0.75,1,0],[1,1,0],[0,0.25,0],[0,0.5,0],[0,0.75,0],[1,0.25,0],[1,0.5,0],[1,0.75,0]];outlineConnect=0;fontColor=#1A1A1A;fillColor=#5D7F99;strokeColor=#D0CEE2;dashed=0;verticalLabelPosition=bottom;verticalAlign=top;align=center;html=1;fontSize=12;fontStyle=0;aspect=fixed;shape=mxgraph.aws4.resourceIcon;resIcon=mxgraph.aws4.athena;labelBackgroundColor=none;" parent="1" vertex="1">
          <mxGeometry x="786" y="307" width="78" height="78" as="geometry" />
        </mxCell>
        <mxCell id="KTp20yquHkzDqrLuCGeQ-10" value="" style="outlineConnect=0;dashed=0;verticalLabelPosition=bottom;verticalAlign=top;align=center;html=1;shape=mxgraph.aws3.quicksight;fillColor=#5D7F99;strokeColor=#D0CEE2;fontColor=#1A1A1A;labelBackgroundColor=none;" parent="1" vertex="1">
          <mxGeometry x="956" y="469" width="80" height="80" as="geometry" />
        </mxCell>
        <mxCell id="KTp20yquHkzDqrLuCGeQ-112" style="edgeStyle=orthogonalEdgeStyle;rounded=0;orthogonalLoop=1;jettySize=auto;html=1;entryX=1;entryY=0.5;entryDx=0;entryDy=0;strokeColor=#736CA8;labelBackgroundColor=none;fontColor=default;" parent="1" source="KTp20yquHkzDqrLuCGeQ-12" target="KTp20yquHkzDqrLuCGeQ-24" edge="1">
          <mxGeometry relative="1" as="geometry" />
        </mxCell>
        <mxCell id="KTp20yquHkzDqrLuCGeQ-12" value="" style="points=[];aspect=fixed;html=1;align=center;shadow=0;dashed=0;fillColor=#5D7F99;strokeColor=none;shape=mxgraph.alibaba_cloud.user;fontColor=#1A1A1A;labelBackgroundColor=none;" parent="1" vertex="1">
          <mxGeometry x="1273" y="459" width="54" height="54" as="geometry" />
        </mxCell>
        <mxCell id="KTp20yquHkzDqrLuCGeQ-15" value="&lt;span&gt;&lt;font style=&quot;color: rgb(0, 0, 0);&quot;&gt;Athena&lt;/font&gt;&lt;/span&gt;" style="text;html=1;align=center;verticalAlign=middle;resizable=0;points=[];autosize=1;strokeColor=none;fillColor=none;fontColor=#1A1A1A;labelBackgroundColor=none;" parent="1" vertex="1">
          <mxGeometry x="795" y="387" width="60" height="30" as="geometry" />
        </mxCell>
        <mxCell id="KTp20yquHkzDqrLuCGeQ-16" value="&lt;span&gt;&lt;font style=&quot;color: rgb(0, 0, 0);&quot;&gt;QuickSide&lt;/font&gt;&lt;/span&gt;" style="text;html=1;align=center;verticalAlign=middle;resizable=0;points=[];autosize=1;strokeColor=none;fillColor=none;fontColor=#1A1A1A;labelBackgroundColor=none;" parent="1" vertex="1">
          <mxGeometry x="956" y="548" width="80" height="30" as="geometry" />
        </mxCell>
        <mxCell id="KTp20yquHkzDqrLuCGeQ-17" value="&lt;span&gt;&lt;font style=&quot;color: rgb(0, 0, 0);&quot;&gt;Database&lt;/font&gt;&lt;/span&gt;" style="text;html=1;align=center;verticalAlign=middle;resizable=0;points=[];autosize=1;strokeColor=none;fillColor=none;fontColor=#1A1A1A;labelBackgroundColor=none;" parent="1" vertex="1">
          <mxGeometry x="621" y="546" width="70" height="30" as="geometry" />
        </mxCell>
        <mxCell id="KTp20yquHkzDqrLuCGeQ-18" value="&lt;span&gt;&lt;font style=&quot;color: rgb(0, 0, 0);&quot;&gt;Bucket S3&lt;/font&gt;&lt;/span&gt;" style="text;html=1;align=center;verticalAlign=middle;resizable=0;points=[];autosize=1;strokeColor=none;fillColor=none;fontColor=#1A1A1A;labelBackgroundColor=none;" parent="1" vertex="1">
          <mxGeometry x="616" y="386" width="80" height="30" as="geometry" />
        </mxCell>
        <mxCell id="KTp20yquHkzDqrLuCGeQ-19" value="&lt;span&gt;&lt;font style=&quot;color: rgb(0, 0, 0);&quot;&gt;Equipo&amp;nbsp;&lt;/font&gt;&lt;/span&gt;&lt;div&gt;&lt;span&gt;&lt;font style=&quot;color: rgb(0, 0, 0);&quot;&gt;comercial&lt;/font&gt;&lt;/span&gt;&lt;/div&gt;" style="text;html=1;align=center;verticalAlign=middle;resizable=0;points=[];autosize=1;strokeColor=none;fillColor=none;fontColor=#1A1A1A;labelBackgroundColor=none;" parent="1" vertex="1">
          <mxGeometry x="1265" y="513" width="70" height="40" as="geometry" />
        </mxCell>
        <mxCell id="KTp20yquHkzDqrLuCGeQ-21" value="&lt;span&gt;&lt;font style=&quot;color: rgb(0, 0, 0);&quot;&gt;&lt;b&gt;Tableros Analiticos&lt;/b&gt;&lt;/font&gt;&lt;/span&gt;" style="text;html=1;align=center;verticalAlign=middle;resizable=0;points=[];autosize=1;strokeColor=none;fillColor=none;fontColor=#1A1A1A;labelBackgroundColor=none;" parent="1" vertex="1">
          <mxGeometry x="931" y="386" width="130" height="30" as="geometry" />
        </mxCell>
        <mxCell id="KTp20yquHkzDqrLuCGeQ-22" value="&lt;div&gt;&lt;span&gt;&lt;font style=&quot;color: rgb(0, 0, 0);&quot;&gt;Glue&lt;/font&gt;&lt;/span&gt;&lt;/div&gt;&lt;span&gt;&lt;font style=&quot;color: rgb(0, 0, 0);&quot;&gt;IntegraciÃ³n - TransfomaciÃ³n&lt;/font&gt;&lt;/span&gt;" style="text;html=1;align=center;verticalAlign=middle;resizable=0;points=[];autosize=1;strokeColor=none;fillColor=none;fontColor=#1A1A1A;labelBackgroundColor=none;" parent="1" vertex="1">
          <mxGeometry x="406" y="387" width="170" height="40" as="geometry" />
        </mxCell>
        <mxCell id="KTp20yquHkzDqrLuCGeQ-111" style="edgeStyle=orthogonalEdgeStyle;rounded=0;orthogonalLoop=1;jettySize=auto;html=1;exitX=0;exitY=0.5;exitDx=0;exitDy=0;entryX=1;entryY=0.5;entryDx=0;entryDy=0;strokeColor=#736CA8;labelBackgroundColor=none;fontColor=default;" parent="1" source="KTp20yquHkzDqrLuCGeQ-24" target="KTp20yquHkzDqrLuCGeQ-20" edge="1">
          <mxGeometry relative="1" as="geometry" />
        </mxCell>
        <mxCell id="KTp20yquHkzDqrLuCGeQ-24" value="" style="editableCssRules=.*;html=1;shape=image;verticalLabelPosition=bottom;labelBackgroundColor=none;verticalAlign=top;aspect=fixed;imageAspect=0;image=data:image/svg+xml,PHN2ZyB4bWxucz0iaHR0cDovL3d3dy53My5vcmcvMjAwMC9zdmciIHhtbG5zOnY9Imh0dHBzOi8vdmVjdGEuaW8vbmFubyIgd2lkdGg9IjE2LjQyMDAwMDA3NjI5Mzk0NSIgaGVpZ2h0PSIyMC4wNDk5OTkyMzcwNjA1NDciIGZpbGwtcnVsZT0iZXZlbm9kZCIgdmlld0JveD0iMCAwIDE2LjQyMDAwMDA3NjI5Mzk0NSAyMC4wNDk5OTkyMzcwNjA1NDciPiYjeGE7CTxzdHlsZSB0eXBlPSJ0ZXh0L2NzcyI+JiN4YTsJLnN0MHtmaWxsOiM0Mjg1ZjQ7fSYjeGE7CS5zdDF7ZmlsbDojNjY5ZGY2O30mI3hhOwk8L3N0eWxlPiYjeGE7CTxwYXRoIGNsYXNzPSJzdDEiIGQ9Ik04LjIxIDBMMCAzLjQydjUuNjNjMCA1LjA2IDMuNSA5LjggOC4yMSAxMSA0LjcxLTEuMTUgOC4yMS01Ljg5IDguMjEtMTAuOTVWMy40MnptMCAzLjc5YTIuNjMgMi42MyAwIDAgMSAxLjAwNSA1LjA2QTIuNjMgMi42MyAwIDAgMSA2LjM1IDQuNTZhMi42MyAyLjYzIDAgMCAxIDEuODYtLjc3em00LjExIDExLjE1YTguNjQgOC42NCAwIDAgMS00LjExIDIuOTMgOC42NCA4LjY0IDAgMCAxLTQuMTEtMi45M3YtMi4yNWMwLTEuNjcgMi43NC0yLjUyIDQuMTEtMi41MnM0LjExLjg1IDQuMTEgMi41MnoiLz4mI3hhOwk8cGF0aCBjbGFzcz0ic3QwIiBkPSJNOC4yMSAwdjMuNzlhMi42MyAyLjYzIDAgMSAxIDAgNS4yNnYxLjEyYzEuMzcgMCA0LjExLjg1IDQuMTEgMi41MnYyLjI1YTguNjQgOC42NCAwIDAgMS00LjExIDIuOTNWMjBjNC43MS0xLjE1IDguMjEtNS44OSA4LjIxLTEwLjk1VjMuNDJ6Ii8+JiN4YTs8L3N2Zz4=;strokeColor=#D0CEE2;fontColor=#1A1A1A;fillColor=#5D7F99;" parent="1" vertex="1">
          <mxGeometry x="1134" y="451" width="56" height="70" as="geometry" />
        </mxCell>
        <mxCell id="KTp20yquHkzDqrLuCGeQ-25" value="&lt;div&gt;&lt;span&gt;&lt;font style=&quot;color: rgb(0, 0, 0);&quot;&gt;IAM&lt;/font&gt;&lt;/span&gt;&lt;/div&gt;&lt;span&gt;&lt;font style=&quot;color: rgb(0, 0, 0);&quot;&gt;Control acceso&lt;/font&gt;&lt;/span&gt;" style="text;html=1;align=center;verticalAlign=middle;resizable=0;points=[];autosize=1;strokeColor=none;fillColor=none;fontColor=#1A1A1A;labelBackgroundColor=none;" parent="1" vertex="1">
          <mxGeometry x="1112" y="525" width="100" height="40" as="geometry" />
        </mxCell>
        <mxCell id="KTp20yquHkzDqrLuCGeQ-101" value="" style="shape=image;verticalLabelPosition=bottom;labelBackgroundColor=none;verticalAlign=top;aspect=fixed;imageAspect=0;image=data:image/png,iVBORw0KGgoAAAANSUhEUgAAAR0AAACxCAMAAADOHZloAAAAhFBMVEX3mB/////3kgD83sP2kAD3lhX2jgD70673lxr3lRH5rV33lhT//fv3lAj3lAD7zqX+9/H4pUr95M7+7+L+9e36xpX82736woz7y5/96df5s2z969v4oT3+8eb5sWf817b4p036voT4okD5uHf3nCz5uXr4q1j6xJH6v4b3njP5r2P3mydxxHMVAAAQOElEQVR4nO1d61rqOhDFkIYUKCCCIF5QRBR9//c75dLMTJqW5kJr93H92p/dLelqMvdMOjd/KEan6QH8atTOzvCAun/UFTWxM3y8X759bwb8DLZ9XS160+d6ft0ZNbDz2HvfCs6SOJIdBRnFCWOcvS66k+sPwRVXZmfWe0kpiBEtGqKEif3X9LqjcMY12ZktnwQbFBID8yhhfNW94kCccT121q9iVDxndMSMvT1ebSyuuBI7swVjUWVqzgSJzf11RuOMq7BztxKJJTVHSNbpXWM8zrgCO88vInbh5sRP/Jv4Cc7O5MOdm/P8+T3rKzQ7Y+7FzZEffnsXeFSuCMvO4575cnNAJBZBh+WMoOx8ieoqvBzs5yHkwFwRkJ27bZCJc4IUn+FG5oxw7PSCTZwT2KZ5BywYO6uAE+eEiDXufgViZ7J3Mv8uQIzDjM4ZYdi5G9m6DdXAP4IMzxlB2JkGFjkA1g8xPmeEYOdeXImbFMltgAE6IwA76yuSk3ruT/4jdIY/O9clp1l6vNnpXpmclJ7mFpcvOw9XJyeVPbsgr+oAT3ae+fXJSTVXU4rdj51h51qqnII3ZBb6sfPqHcypCNGMU+HFzldw36oQrBGX1Ied66srQLQJ9soW8GBnUt/MScGaCBd6sLOrkOYMCNFAtNCdnV4tyhwgGyg1cv7JSc3kdDqjr5AvXgnO7HzXpcwBovZEjis70xr1VYb69ZYrO9t6jGQKrmdJ77rLr1V/t+u/L8bTmS8XeTiy06tVm2eQEg3hedxnnI3iOEpxLCQbvK8D24yO7CRNTJ3U6Mn8reF4L3IlMDJmYhc0Ce/GzriRqZNidPz52YdgBZ8nYvGyaXZG9XICOEyeYXmVh2QsmEfvxE4zUuf46nFqhV5MnbFtILvaiZ2aojomyJ8qX0aKt8bY6dZuJuMXr/bf2D6E+nJhZ3edxGdYRCzA6nJgZ9aAmewAKfxLoB3YWV6joOAa8KfHgZ2f5mSyJbyj0fbsPDYpky3BPTfx2LMzb8vC6vhHzOxv37dmYaWIv+tlpyUaKwNf18rOujEvwg3cxyq0Zue9/oipF+L3OtkZtEnsHOATjbZlZ9YifX7CwKP00JadbsvETsdr8tiy0yZr54zYvfrHlp2XetPDQcBrY6c9ThaAOds8tuy0yxY8YfBSEzv11AmGhvPSsmRn2j6VlYK7RjIs2WmbH3HCyDXFZclOY2k+LwxW9bDTQnMnhdzWw85by3zQM0Q97Hy0kx3XMIYlO6uWsuPoalmy00ZHIgXrPTv1GrOdO+1kp8M4l/25dROt/4dUPkAemmg9za1aIFmx87DYNv2OnpAJ/5lXT3JVZ2c43l6unGkBZCJ2VT2LquxMFqyoGK1RyEGcpIitwt0R31crL6zIzrzitJERgiy6lnsTdFvxpfxdCef7l7fP5fzza7Xh3OLzSb6vMn8qsdONKrpX8qmPQLOmcq8uvOq83cJNmlJET9zQu2K+n5MSnbvxrUXbKMl3l+VPBXaGL7zqR6F9PahDH0FuYKjF0LCxphVsMmgDRnw8KVYG7fP8btFVYSDm/uxMk+ofhIaZtFAZgyvaBBHIVNMKyxDfr+gK2xRYv48/FjYH21+woS+ys7T4GpGWOqJFfqhcpE8oIC70FxVwyENCXJd1vnq1UKzyQpeWS+y82IRK9UJh6rMyKMX6JG9A4r5atS9MuDsYiSjtundrU9bIS4s0LrCzsbJw9GKie/KmCSzzddGF1OIknyN6NTzswv7roVWELtmW7D4pZWe4t3IccrVEEyJ9B/CZaP0Yuy+8J35TFxbZh4ovRfrswruypDi1jJ3hj53PiV7lDKrTE3gyoYDGFyS+B6ksJa4T/L8fPvubze6NGnd2SbeS4tQSdoZbS4ec5X5lQRYmkrCEAhq5IxIbqaxsuiHCbma3PImkjGJGMnq20W9RlA4sYefJ1h9XillNVVqTgF71GxEv9+RnicQGQpV5gKbOHQcmcQc+6/q0InqK2enbupyRanWi/kFXEEqcYAq0jAGRGqCyMqGcIGVOen7j8lvrnYfC7HcVsmPfxQH0uVC66xYPE4lTTEFCs01YYiOVlfHJQYbOyRAl6mJkX6BmLm0uYsehI5MSro8wUan1Dz+GKWD0u+H5huR8JpSROa75pfBNXMrxjVU+Bew825MDmzbHXL3UlKhuoaQIpkAPiSONgyTweZ5IaOR0pxmqSDA7pGxlbIg8F7DjUJQMRUSrBOQsNWxg+iIK9GQTiuzDDZlQRqVKehkaMipdKtQGhv3cZnZcWseAPk/QJKH6GYxcoEBTWWQ1cmXHKqFcZHCnl6DXgVP9Hnurxo5TMy+lz9MZD0yNcUQCVccCBUpWZxEJ5H+AysqEMhLh+v7LGNhxKxXJW4VGdly24oN6SUedKOOD+AxomgAF6n2zlwN5glRWJpRHY8Mjzk/f9cZnOKZOci2QTOwsXZgHYyZVp+i1yLNAxABr2TwbKurUJaSysseguZPb7CNZBse8UqwX7xrYceuOwlWo7hDVAb1LcstgrIDSyhz7R0WdUgmgssBSRiZx+GoZvZWEgR23XPkgu/1Y7w00EOmANLRSWhmR92KmDwBUlhKzuLD/K3wCaUTVep6dO6fCSdC0R1UC4oGET9FSyXLOysSdK3NV2XKgspQQl0jvDsPnkBLa4yfPzrdTqhwM3qNEROE+7I6jd8veV02GFxXUUhMFVBYYBtg6egjfuViQAF6OHbepgwLnJ4U3Ug8k4VN4N2XAZGL2J8mmXzbdjLKdpD0eRqHz+jGp3s2x4yZ1wMA/x/bAPSCKF/6c6W2lsgRMrMwufsv+gPau0B1Fw5UIXBVC/K3yYGdlgKI9LwtwesgTkS90/rNSWRwU3TmvB6Y1tn21Oq7HvtuJQkUgcVmdHceySdDn53Ag8oewz4aiM+c/Z5SkwlwF7c+LERYRHlUuPvu8SPyPhwEIFIXX2XHcnAYBu6fTA+SP+gtWvEiUnJawWk4pAcr/OLsfoLKIt2ZoPNhdcevjugpfBYXXNHambpX+IAyUlQeOKHEJwUw86W11Z6oq1fI8u0mgskj6WMaGEq7h+lUEaiiFcrYaO467PkGfK/8PHFESPoWU14k0ZRilFrZi6iSEpZpn2obCaGssApwtZRADCEXjNHYcjXOYKEpCoAmKw6dA2klpgcrCsc/jMEDA6AGJSBbkv+9DnMGE8m6UHcdNIsjIU0wYDL8DUHzmOKWQykLL7ljCAiorpyqK89/rABYQ2G6UHUfPBb0yrAGufgNzjgoRjkoLqSxkDR3tbVBZBvOdPRVUJw2/vacPLC3KjmMXB/A5kVTn+UTdAWBEH2ScmmHH6JZadkfXFVSW6ZtJ/lrAz6fvHjKwRgg7jqYgkvIoGYAiMbgmB9758H/VQI46myot9dSCXd4R346NBchzT3ogd0LYcRQ7yLhHPKA1tEQaGcTyQdYq2XL0VVXe7xBiAuekMEosmditDfpr5Wk9K4OQsLN06yOI3AP81WBG4SgeTKmDs5nJlpPWhzInPK1Ks1MRE9/5PKb00+zqCxJ2HK0d0Oek+AblqdDHR3lhDuvsfKNSWukcBJV1YXPGIH/KsecWRBUFJuzcOlGOUrQkA4ECgej9UCfX1OkgKgu5a6nyBJV1+ZsN+Jby4zd51LQl7Hjr853gAAGhEhw+hZn2HivZcvZdlS49+KTZ4q8U55aC1Cr47UFU9RKEHTdZj/L+Ewr1d5zUhTmxHFGVhYhOV5oSWxVTdwwcXL2+zhZqNWB2hm6PRF5bIZDkwFEb9e+zqlMB16EAlVW1ZIDhmLBfV4HIwI5bquZiGd8BSN6D/n/m2TzKDC2Ie0gVR62+Yw7HhP26k2Umqz87lbpMICWCqpO5prKQi/MNhaWkECUWGfLrDScUvr3CPdly8GdHVOmnjmvVwMnbaCoLKa1Plb8hBnwqqIYnGMQRirh5NuAKxk6uhMIMlJoHKf6eeVmq+lJNxLUinRjwKGxqMOxBHXpufg7GTlLtPGGU9wc7aJnJFqi2zZ4GeWMilFG42sAORLd/CzsVO3CgdQBv2M1sUvUqyjkbKulENuoil86gtFGuK/zKctLoqI7v+1bDBtx0JD0gLnbX1S+CJf2W/YOYvci1NXju6Ev1vaRybGDHxRpEKeHURtGAD7PcGErhhpPcNFCiIxNONKqCt+MYVhZ4dl4aXclSwo5LPRw4UwabFolJVKHM9X1nyNHgejpGEy8ojZ6PGKJ57GUrq7wSYWdjTzjS54u8TYv2BqC3zFlIX3HxNS2qgpjNOeJIKOn1qHZQD/KMYOCZbpjMOHMGKyTRj3pCMbPcNS2vj7eA6fkrAcz5nemQGCMY9tEv9PqmsCuuPwcKIuwvHoB+NtJPTtUOAcDXtdOjcc2on1A2R7/sI6dIh+pFjkcgwYPsFq1LGbEkEu2azjl64s2CFDDsSu6yAzdGTvW9vhWeAzcb7S8keJBi0vYAko8iJsXXDiAbAddZ+lwmZKuoX3inIOpOtu1WAUobmg8owYIH2NF2RtDSQmpdjnOLneEw+3C844Jzsf/E3p7nqXkFGRvDWMqB9Lm5EyEWPKCBNe+DVBczuiM2X2yVa1s6mel+8ItfPhQmPGXHdvMIWiIFWgItFNhxp+3MJjNWK88xbGK8eEyE72mUIC60KgO7uDsOGRRU1CHBg2wQGk6kLQ+IQjNKwgt9qnyPwEWTU2PHLtWBjZOCNYkFj2l3yE3OYSLMGbWoZGUthsa+rViRua7XflkJHiRBi87gMO+4I/trNQYIcwX7X4tbEEys2gsYR4wqonN1gzb0IH1euI0X9bgw7Bw5QO9egJVWkfXONsbAyWTuX0GIdwPo7NhEMeTTunfGWm8aoxAvsv/TAytEvqo7ez3Nro3f4dK6cLeP5JueVmIwuV8FKD8lTTly9co2G2xgU0tJSVqs/k9ivDNXDhmzKo89lBhsP8b304fHx4fpevm+F65bawjIos/vBMj3SPq1kPGIsUPaNWU+DjPs6PamlJ37VjaYDgW6tdiwA6nf3p6C3tDOqDftXmtlD+Ug0FsNm3Y+3vvaU62FvmXfuGv24386e3Jtj8z70TctbfbqhyRXL2FmZ9K6k44CwNDMoKgPxv9PrctOvnq1qIeKUzuDNkMmhlqSwv470/8XPXJk6utZ3LvpCht2fy+i2FiFVNL36/FXtgy+CuIfc0/zso56M5ueoW0Guy3oiV/eq3L3vzALeeGxkBc6ec7/feEjS7qmXuoCOx38C73cS8D2JU2oL/dXXv3L00eW9SKu1Jt72vlnpQ9/Kk+NVerrXrXnfcvARqV9mquyczP5sOgn3xIk/GJb98rnScw+wjbjaBiSsXmFc3+qn0UymcfsHwn7xPynvL23PTspun0RrBlHYzhslAx9UssZk16fs0DdOBpAlHC+uq9+lJbtWbM3N8Pu4nAqStyirGDndD4U569zu5ND7dk5MvTQ+9r9nLKQvx+HcW6/F2uro7M82Dljcvcw7f56TB+eHQ819GPnn8cfO2X4Y6cMf+yU4Y+dMvyxU4Y/dsrwH6oc9dS5/g5iAAAAAElFTkSuQmCC;fillColor=#5D7F99;strokeColor=#D0CEE2;fontColor=#1A1A1A;" parent="1" vertex="1">
          <mxGeometry x="129" y="22" width="43.47" height="27" as="geometry" />
        </mxCell>
        <mxCell id="KTp20yquHkzDqrLuCGeQ-102" style="edgeStyle=orthogonalEdgeStyle;rounded=0;orthogonalLoop=1;jettySize=auto;html=1;exitX=1;exitY=0.5;exitDx=0;exitDy=0;entryX=0;entryY=0.5;entryDx=0;entryDy=0;entryPerimeter=0;strokeColor=#736CA8;labelBackgroundColor=none;fontColor=default;" parent="1" source="KTp20yquHkzDqrLuCGeQ-1" target="KTp20yquHkzDqrLuCGeQ-5" edge="1">
          <mxGeometry relative="1" as="geometry" />
        </mxCell>
        <mxCell id="1yYehOF_DNbkC2h0I6DK-12" style="edgeStyle=orthogonalEdgeStyle;rounded=0;orthogonalLoop=1;jettySize=auto;html=1;exitX=1;exitY=0.79;exitDx=0;exitDy=0;exitPerimeter=0;strokeColor=#736CA8;fontColor=default;entryX=1.033;entryY=0.467;entryDx=0;entryDy=0;entryPerimeter=0;labelBackgroundColor=none;" edge="1" parent="1" source="1yYehOF_DNbkC2h0I6DK-1" target="1yYehOF_DNbkC2h0I6DK-24">
          <mxGeometry relative="1" as="geometry" />
        </mxCell>
        <mxCell id="1yYehOF_DNbkC2h0I6DK-26" style="edgeStyle=orthogonalEdgeStyle;rounded=0;orthogonalLoop=1;jettySize=auto;html=1;exitX=1;exitY=0.5;exitDx=0;exitDy=0;exitPerimeter=0;strokeColor=#736CA8;fontColor=default;labelBackgroundColor=none;" edge="1" parent="1" source="1yYehOF_DNbkC2h0I6DK-1" target="1yYehOF_DNbkC2h0I6DK-25">
          <mxGeometry relative="1" as="geometry" />
        </mxCell>
        <mxCell id="1yYehOF_DNbkC2h0I6DK-1" value="" style="outlineConnect=0;dashed=0;verticalLabelPosition=bottom;verticalAlign=top;align=center;html=1;shape=mxgraph.aws3.ec2;fillColor=#5D7F99;strokeColor=#D0CEE2;fontColor=#1A1A1A;labelBackgroundColor=none;" vertex="1" parent="1">
          <mxGeometry x="622.5" y="129" width="67" height="70" as="geometry" />
        </mxCell>
        <mxCell id="1yYehOF_DNbkC2h0I6DK-2" value="&lt;span&gt;&lt;font style=&quot;color: rgb(0, 0, 0);&quot;&gt;EC2&lt;/font&gt;&lt;/span&gt;" style="text;html=1;align=center;verticalAlign=middle;resizable=0;points=[];autosize=1;strokeColor=none;fillColor=none;fontColor=#1A1A1A;labelBackgroundColor=none;" vertex="1" parent="1">
          <mxGeometry x="631" y="199" width="50" height="30" as="geometry" />
        </mxCell>
        <mxCell id="1yYehOF_DNbkC2h0I6DK-3" value="" style="outlineConnect=0;dashed=0;verticalLabelPosition=bottom;verticalAlign=top;align=center;html=1;shape=mxgraph.aws3.lambda_function;fillColor=#5D7F99;strokeColor=#D0CEE2;fontColor=#1A1A1A;labelBackgroundColor=none;" vertex="1" parent="1">
          <mxGeometry x="467.5" y="129" width="69" height="72" as="geometry" />
        </mxCell>
        <mxCell id="1yYehOF_DNbkC2h0I6DK-4" value="" style="verticalLabelPosition=bottom;html=1;verticalAlign=top;align=center;strokeColor=none;fillColor=#5D7F99;shape=mxgraph.azure.github_code;pointerEvents=1;fontColor=#1A1A1A;labelBackgroundColor=none;" vertex="1" parent="1">
          <mxGeometry x="30" y="139" width="50" height="50" as="geometry" />
        </mxCell>
        <mxCell id="1yYehOF_DNbkC2h0I6DK-5" value="&lt;span&gt;&lt;font style=&quot;color: rgb(0, 0, 0);&quot;&gt;Lambda&lt;/font&gt;&lt;/span&gt;" style="text;html=1;align=center;verticalAlign=middle;resizable=0;points=[];autosize=1;strokeColor=none;fillColor=none;fontColor=#1A1A1A;labelBackgroundColor=none;" vertex="1" parent="1">
          <mxGeometry x="467" y="203" width="70" height="30" as="geometry" />
        </mxCell>
        <mxCell id="1yYehOF_DNbkC2h0I6DK-6" value="" style="outlineConnect=0;dashed=0;verticalLabelPosition=bottom;verticalAlign=top;align=center;html=1;shape=mxgraph.aws3.codepipeline;fillColor=#5D7F99;strokeColor=#D0CEE2;fontColor=#1A1A1A;labelBackgroundColor=none;" vertex="1" parent="1">
          <mxGeometry x="322" y="129" width="60" height="70" as="geometry" />
        </mxCell>
        <mxCell id="1yYehOF_DNbkC2h0I6DK-7" value="CodeDeploy / CodePipeline" style="text;html=1;align=center;verticalAlign=middle;resizable=0;points=[];autosize=1;strokeColor=none;fillColor=none;fontColor=#1A1A1A;labelBackgroundColor=none;" vertex="1" parent="1">
          <mxGeometry x="267" y="201" width="170" height="30" as="geometry" />
        </mxCell>
        <mxCell id="1yYehOF_DNbkC2h0I6DK-9" value="" style="shape=image;verticalLabelPosition=bottom;labelBackgroundColor=none;verticalAlign=top;aspect=fixed;imageAspect=0;image=https://images.icon-icons.com/2699/PNG/512/python_vertical_logo_icon_168039.png;fillColor=#5D7F99;strokeColor=#D0CEE2;fontColor=#1A1A1A;" vertex="1" parent="1">
          <mxGeometry x="681" y="90.80999999999995" width="44" height="49.19" as="geometry" />
        </mxCell>
        <mxCell id="1yYehOF_DNbkC2h0I6DK-10" style="edgeStyle=orthogonalEdgeStyle;rounded=0;orthogonalLoop=1;jettySize=auto;html=1;strokeColor=#736CA8;labelBackgroundColor=none;fontColor=default;" edge="1" parent="1" source="KTp20yquHkzDqrLuCGeQ-2" target="1yYehOF_DNbkC2h0I6DK-1">
          <mxGeometry relative="1" as="geometry">
            <mxPoint x="662" y="543" as="sourcePoint" />
            <mxPoint x="662" y="460" as="targetPoint" />
          </mxGeometry>
        </mxCell>
        <mxCell id="1yYehOF_DNbkC2h0I6DK-17" value="&lt;span&gt;&lt;font style=&quot;color: rgb(0, 0, 0);&quot;&gt;&lt;b&gt;AplicaciÃ³n&lt;/b&gt;&lt;/font&gt;&lt;/span&gt;" style="text;html=1;align=center;verticalAlign=middle;resizable=0;points=[];autosize=1;strokeColor=none;fillColor=none;fontColor=#1A1A1A;labelBackgroundColor=none;" vertex="1" parent="1">
          <mxGeometry x="451" y="57" width="80" height="30" as="geometry" />
        </mxCell>
        <mxCell id="1yYehOF_DNbkC2h0I6DK-19" style="edgeStyle=orthogonalEdgeStyle;rounded=0;orthogonalLoop=1;jettySize=auto;html=1;exitX=0.5;exitY=0;exitDx=0;exitDy=0;exitPerimeter=0;entryX=0.5;entryY=0;entryDx=0;entryDy=0;entryPerimeter=0;strokeColor=#736CA8;fontColor=default;labelBackgroundColor=none;" edge="1" parent="1" source="1yYehOF_DNbkC2h0I6DK-6" target="1yYehOF_DNbkC2h0I6DK-3">
          <mxGeometry relative="1" as="geometry" />
        </mxCell>
        <mxCell id="1yYehOF_DNbkC2h0I6DK-20" style="edgeStyle=orthogonalEdgeStyle;rounded=0;orthogonalLoop=1;jettySize=auto;html=1;exitX=0.5;exitY=0;exitDx=0;exitDy=0;exitPerimeter=0;entryX=0.5;entryY=0;entryDx=0;entryDy=0;entryPerimeter=0;strokeColor=#736CA8;fontColor=default;labelBackgroundColor=none;" edge="1" parent="1" source="1yYehOF_DNbkC2h0I6DK-6" target="1yYehOF_DNbkC2h0I6DK-1">
          <mxGeometry relative="1" as="geometry">
            <Array as="points">
              <mxPoint x="352" y="100" />
              <mxPoint x="656" y="100" />
            </Array>
          </mxGeometry>
        </mxCell>
        <mxCell id="1yYehOF_DNbkC2h0I6DK-21" style="edgeStyle=orthogonalEdgeStyle;rounded=0;orthogonalLoop=1;jettySize=auto;html=1;entryX=0;entryY=0.5;entryDx=0;entryDy=0;entryPerimeter=0;strokeColor=#736CA8;fontColor=default;labelBackgroundColor=none;" edge="1" parent="1" source="KTp20yquHkzDqrLuCGeQ-2" target="KTp20yquHkzDqrLuCGeQ-9">
          <mxGeometry relative="1" as="geometry" />
        </mxCell>
        <mxCell id="1yYehOF_DNbkC2h0I6DK-22" style="edgeStyle=orthogonalEdgeStyle;rounded=0;orthogonalLoop=1;jettySize=auto;html=1;exitX=1;exitY=0.5;exitDx=0;exitDy=0;exitPerimeter=0;entryX=0;entryY=0.5;entryDx=0;entryDy=0;entryPerimeter=0;strokeColor=#736CA8;fontColor=default;labelBackgroundColor=none;" edge="1" parent="1" source="KTp20yquHkzDqrLuCGeQ-9" target="KTp20yquHkzDqrLuCGeQ-10">
          <mxGeometry relative="1" as="geometry" />
        </mxCell>
        <mxCell id="1yYehOF_DNbkC2h0I6DK-24" value="&lt;span&gt;&lt;font style=&quot;color: rgb(0, 0, 0);&quot;&gt;.&lt;/font&gt;&lt;/span&gt;" style="text;html=1;align=center;verticalAlign=middle;resizable=0;points=[];autosize=1;strokeColor=none;fillColor=none;fontColor=#1A1A1A;labelBackgroundColor=none;" vertex="1" parent="1">
          <mxGeometry x="662" y="320" width="30" height="30" as="geometry" />
        </mxCell>
        <mxCell id="1yYehOF_DNbkC2h0I6DK-25" value="" style="aspect=fixed;sketch=0;html=1;dashed=0;whitespace=wrap;verticalLabelPosition=bottom;verticalAlign=top;fillColor=#5D7F99;strokeColor=#D0CEE2;points=[[0.005,0.63,0],[0.1,0.2,0],[0.9,0.2,0],[0.5,0,0],[0.995,0.63,0],[0.72,0.99,0],[0.5,1,0],[0.28,0.99,0]];shape=mxgraph.kubernetes.icon2;prIcon=api;fontColor=#1A1A1A;labelBackgroundColor=none;" vertex="1" parent="1">
          <mxGeometry x="959.54" y="129" width="72.92" height="70" as="geometry" />
        </mxCell>
        <mxCell id="1yYehOF_DNbkC2h0I6DK-27" value="&lt;span&gt;&lt;font style=&quot;color: rgb(0, 0, 0);&quot;&gt;API Gateway&lt;/font&gt;&lt;/span&gt;" style="text;html=1;align=center;verticalAlign=middle;resizable=0;points=[];autosize=1;strokeColor=none;fillColor=none;fontColor=#1A1A1A;labelBackgroundColor=none;" vertex="1" parent="1">
          <mxGeometry x="951" y="199" width="90" height="30" as="geometry" />
        </mxCell>
        <mxCell id="1yYehOF_DNbkC2h0I6DK-29" style="edgeStyle=orthogonalEdgeStyle;rounded=0;orthogonalLoop=1;jettySize=auto;html=1;exitX=0.5;exitY=0;exitDx=0;exitDy=0;entryX=0.995;entryY=0.63;entryDx=0;entryDy=0;entryPerimeter=0;strokeColor=#736CA8;fontColor=default;labelBackgroundColor=none;" edge="1" parent="1" source="KTp20yquHkzDqrLuCGeQ-24" target="1yYehOF_DNbkC2h0I6DK-25">
          <mxGeometry relative="1" as="geometry" />
        </mxCell>
        <mxCell id="1yYehOF_DNbkC2h0I6DK-31" value="&lt;span&gt;&lt;font style=&quot;color: rgb(0, 0, 0);&quot;&gt;Github&lt;/font&gt;&lt;/span&gt;" style="text;html=1;align=center;verticalAlign=middle;resizable=0;points=[];autosize=1;strokeColor=none;fillColor=none;fontColor=#1A1A1A;labelBackgroundColor=none;" vertex="1" parent="1">
          <mxGeometry x="25" y="189" width="60" height="30" as="geometry" />
        </mxCell>
        <mxCell id="1yYehOF_DNbkC2h0I6DK-32" style="edgeStyle=orthogonalEdgeStyle;rounded=0;orthogonalLoop=1;jettySize=auto;html=1;entryX=1;entryY=0.5;entryDx=0;entryDy=0;entryPerimeter=0;strokeColor=#736CA8;fontColor=default;labelBackgroundColor=none;" edge="1" parent="1" source="1yYehOF_DNbkC2h0I6DK-6" target="1yYehOF_DNbkC2h0I6DK-4">
          <mxGeometry relative="1" as="geometry" />
        </mxCell>
        <mxCell id="1yYehOF_DNbkC2h0I6DK-41" style="edgeStyle=orthogonalEdgeStyle;rounded=0;orthogonalLoop=1;jettySize=auto;html=1;strokeColor=#736CA8;fontColor=#1A1A1A;dashed=1;exitX=0;exitY=0.5;exitDx=0;exitDy=0;" edge="1" parent="1" source="1yYehOF_DNbkC2h0I6DK-57" target="KTp20yquHkzDqrLuCGeQ-17">
          <mxGeometry relative="1" as="geometry" />
        </mxCell>
        <mxCell id="1yYehOF_DNbkC2h0I6DK-50" style="edgeStyle=orthogonalEdgeStyle;rounded=0;orthogonalLoop=1;jettySize=auto;html=1;exitX=1;exitY=0.5;exitDx=0;exitDy=0;entryX=0;entryY=0.5;entryDx=0;entryDy=0;strokeColor=#736CA8;fontColor=#1A1A1A;startArrow=classic;startFill=1;" edge="1" parent="1" source="1yYehOF_DNbkC2h0I6DK-34" target="1yYehOF_DNbkC2h0I6DK-48">
          <mxGeometry relative="1" as="geometry" />
        </mxCell>
        <mxCell id="1yYehOF_DNbkC2h0I6DK-66" style="edgeStyle=orthogonalEdgeStyle;rounded=0;orthogonalLoop=1;jettySize=auto;html=1;exitX=0;exitY=0.5;exitDx=0;exitDy=0;entryX=1;entryY=0.5;entryDx=0;entryDy=0;strokeColor=#736CA8;fontColor=#1A1A1A;" edge="1" parent="1" source="1yYehOF_DNbkC2h0I6DK-34" target="1yYehOF_DNbkC2h0I6DK-65">
          <mxGeometry relative="1" as="geometry" />
        </mxCell>
        <mxCell id="1yYehOF_DNbkC2h0I6DK-34" value="" style="shape=image;verticalLabelPosition=bottom;labelBackgroundColor=default;verticalAlign=top;aspect=fixed;imageAspect=0;image=https://cdn.freelogovectors.net/wp-content/uploads/2022/03/azure_data_factory_logo_freelogovectors.net_.png;" vertex="1" parent="1">
          <mxGeometry x="708" y="834" width="70" height="70" as="geometry" />
        </mxCell>
        <mxCell id="1yYehOF_DNbkC2h0I6DK-40" style="edgeStyle=orthogonalEdgeStyle;rounded=0;orthogonalLoop=1;jettySize=auto;html=1;entryX=0.5;entryY=0;entryDx=0;entryDy=0;strokeColor=#736CA8;fontColor=#1A1A1A;dashed=1;startArrow=classic;startFill=1;" edge="1" parent="1" source="1yYehOF_DNbkC2h0I6DK-61" target="1yYehOF_DNbkC2h0I6DK-34">
          <mxGeometry relative="1" as="geometry" />
        </mxCell>
        <mxCell id="1yYehOF_DNbkC2h0I6DK-35" value="&lt;span&gt;&lt;font style=&quot;color: rgb(0, 0, 0);&quot;&gt;.&lt;/font&gt;&lt;/span&gt;" style="text;html=1;align=center;verticalAlign=middle;resizable=0;points=[];autosize=1;strokeColor=none;fillColor=none;fontColor=#1A1A1A;labelBackgroundColor=none;" vertex="1" parent="1">
          <mxGeometry x="662" y="350" width="30" height="30" as="geometry" />
        </mxCell>
        <mxCell id="1yYehOF_DNbkC2h0I6DK-37" value="&lt;span&gt;&lt;font style=&quot;color: rgb(0, 0, 0);&quot;&gt;Data Factory&lt;/font&gt;&lt;/span&gt;" style="text;html=1;align=center;verticalAlign=middle;resizable=0;points=[];autosize=1;strokeColor=none;fillColor=none;fontColor=#1A1A1A;labelBackgroundColor=none;" vertex="1" parent="1">
          <mxGeometry x="698" y="904" width="90" height="30" as="geometry" />
        </mxCell>
        <mxCell id="1yYehOF_DNbkC2h0I6DK-39" value="" style="shape=image;verticalLabelPosition=bottom;labelBackgroundColor=default;verticalAlign=top;aspect=fixed;imageAspect=0;image=https://static-00.iconduck.com/assets.00/microsoft-azure-icon-2048x1258-uc8ywy89.png;" vertex="1" parent="1">
          <mxGeometry x="130.31" y="723" width="48.85" height="30" as="geometry" />
        </mxCell>
        <mxCell id="1yYehOF_DNbkC2h0I6DK-44" value="" style="shape=image;verticalLabelPosition=bottom;labelBackgroundColor=default;verticalAlign=top;aspect=fixed;imageAspect=0;image=data:image/webp,UklGRvYPAABXRUJQVlA4WAoAAAAQAAAA7QAA/wAAQUxQSFQHAAAB8AZt2/K22bbtkgVGhd2J7amT6RVmZoYyc1VmZgiTlEKYk8lVbsMpM2OY2TRXmBOzYzglbRfY0nmc+67z+HVNImICSOgHwP4BstUX/XfRfxf9d9F/F/33f7Tu5fegrXLNYVcyyE65J9ew+6fbRnmmGOD+YQOy0VdXgfuH9clGd98L7vnZZKO77wP3Y1eSje6xD9xPXEE2+pJtYD+VbLR3epjdUp+NSpwWBvPw0jSyz0nTwuC+vj7Z6HvD4H5wCNnofnng/q/BZKP75YP9Y2Sj++WDe2Ruio26LAfcI/OSyT4nLwb7XU3JPicviLDL7UtKnfYidX4E3HP6kNprRtqKF8G+6hpS22HnkaE2YughdqG3vGo6bAcODbUNQw+Bu/Gml5Q23wYAh4bZhGGHwP7nFFLqmoZatzW2BZ0Pgv2ebqTUPaWmtsjbPhuQ9hHY7+lKSt1TDNT9ti/u+d4Be+MeUjusHNG+nRbnfO+Afc1Ej5ruexF1+O74lvw22FdPcpHSzvsQ47Gr4tpt1fw+cJFS7weI+fhVceyqY2C/rT0p9U4zYsPxq+PWVcfBfmt7Upo0LQwz87Pj1MDjYF8+lNTeHYa5yxrEpQafg33Vay41/XJh9rIGcajBMrCvfDWBlPbLh/nLGsadBsvA/0sPKW2RC5VLnXGm/jLwX9eSlCYvhtKim+PMo+C/riUpTV0QUYMzN8WVm07zO96B1I6G8jM3xZGbz4B9xTMONUMPq8OZa+PGNWfAvvxZBykdeghW/Cs9TqT/Bv6LSW3vQ7DmJ+lxIf0T8P+1uZq0VbDqJ+lxIP0T8P+1GSn1vQ3rrkwUL/0T8N/dnJT63oaFL9wr3ijwL7uP1D4ISxf6hfOf51fyCKm96pi1UOgXzV8I/mNI7RXHYfXCOwXzF4L/d03VNPwD1t+dJVaPs+D/bSYpbfAxOH6TIVTGt+B/8B+ktNHH4PlNhkgZ34J/0T2kdhK4fpMlUOa34F94D6m96RQbzBNoJvgbD5Pam06Db/HD4jxcLMAnPjUDT4Nz6cPCPFwK/p+lk9ImX4F36cMOQRwPl4L/5ktIafon4F56lSAjSsD/7I2k1PE2+P+eLUb2b+B/+hZSe1exAPglW4jsXyDgs6T2rkKI+EszEZr/AgGXN1RzcyGEXOYUwPEBBFzekJRmrIeU5U872DmeKRfgq4akNOMbyFnxjIOZ45kK8D8xhJRmfgNJK55xsnI+UwH+x68hpY43IesFP6vbL4B/9W2ktt5fwmBLC0YtNkHAd5IVUa8cYbCuBZsW68A/8q6PlD8ZEgbrWjBpsQ4C/lmf1HuDIWHwdzMWl/4NAY8MIyt6giFh8LqDgSMAAQ8PJ2t6giFhKl9xWs75SqUA50aSVT1BQxZUveK0WMKrVRBwltMy5AkasqDqVZe1Hq8G/8jCVLKwJxCSBaWDLNV+HwRcmUKW9gQMWbClnYXabYWABT3J4p6AIQu2trNMu60QsGAAWd4TMGTB1jYWab0VAh4aQAw9QUMWLEmwRMICCBgZTSw9QUOW6gkuC7gmVAsQnpnEg9xBQxTUTHApc0+ogYDzE4mrO2iIgpoJHlWvGRBwXwvi6w4YoqD6ekXdDkHA/T2JsztgiILdXZV03Q0BT/Ym3u6AIQr2dFXQdQ8EDE10MCN3wBAFe7qa1mUPBDQCHmLvDhiiYHuGSZ4VEDA81UMCuoMhUSLTPKZ436iRYGNjErHRBlEQesNrgveNEATc2ZmE7LRDFITe8MaU+EYIAuZ0IjE77RAF4aAzlntDELDmGRK00w5RcLZ/DL1zIGD1WJck1HGHKMjpHVWfHEg4NYFk7bhDFOT0iaJPLiTceClJ23GHKDjQso6UHyDhptYkb8cdomBRUi1Jc0MSbG5NEnfcIUpkbhIRJc2NQMDKm0jmjjskQWRuEqXOiUDAyhcThKKOOyRBZJZ3chgCVj1HcrfZLAlKbzoHCYtfefBhse+fXyMJzkKzy/Rq60d6tfC2Mp0qu73FSZ062SLlU536NIVm6NQMohEV+lQxgqjVWX0624rIs1af1nqIaK4+zSUiGlKpS5VD/6ftaV3akv4/CZ/q0nKqdY4mhR+ubXCVHlX2qa3hej1a36g2WqtHa6nOe8I6FL6nrkGVOlQ5qC7feh1a76vL+YkOfeKsi/w65Kcoh5TrT/mQaFI26c+GlGhcq/RnHEV9j/7cFt3gYt3Jy44uZYPurE+KjkbpziiK0R/Wm7A/lswCvSnIjCV1nd6sS42FRunNKIrZX6MzNf7YMg7pzKGM2Hy/68zvvthovM6MIhNvr9KXs13MyDquLwVNzUj7QV8Wkqmj9GWUOR3O68r5DuZk5epKbpY5tFhXFpPJr+nKa2Z1LNGTko5mZe3Rkz1ZZtF7evIemf58WEciz5vXrUJHznUwr+k2HfnCbR6t0JGFpPDxiH7UDFfR4ZR+nOqkIuFb/fg2QQXN1Y+5pPSKsG6Er1DT/qhuHG2vxvWzbvzsUuOYrRuzHbEAVlA4IHwIAADwNwCdASruAAABPpFEnUolv6KhqBXpY/ASCU3cGDukABcGjn/ue2Y1z5Hkp96emP3GeH0hP1l+jpx3mH/rT08//t0J759+sn9v/FLw1/ylqROVjrt0YqsbX9QbpAegB+yRSThvhgEjwfpHtngkTWEIM+09yvFOkSPyYKDyWl9Ohorj2b/XMOSwhmADtb+jRywMAK1L4K1iPfXTMNsFpNtsp3y3diQ71NIsvStiT6RJCqTl/AWEekcBcydKpVKopoFWvOLE3LDNmCMvRMAOwEVbVGJbs4fFRwIcXapWCEkritzSZDyrMHcLXsgyND4EBgQBW1GfCuBjcYrGVHGIWp+1h9/uZyncRGBtZLQmGOn/f2jURqgg6hzQMLBTzWqEeSth7qqZyUCTCYu+/iw5eleWjQClocZSm1uUpG61q5zLcF+U9tt/EX8PXz8Z58FE0AJo1oNPBRoum1aL/xPt7UvIbEnR+WiXZ4uTNOkgSAaLOk+fT7o6JgpDClAwksPv+PJsLcBDpMh5rmjpFiolrTqP30HOBbcD7bSoHd4GfehTIkVOufcvhOO3BMw073/7ycsivv/5x+HUqg6izRUw1VJIjD4pljgPXYAA/t15QgGu5bZVijJtMdxLM4ZAkSQwK5q7Fbz+q1QmLCMzarqT1slNAJAY+MRtlryOaq+Fr47TmeH0ESTvVW17iezl/dpplVCDvUwwMNoqfVewZk4KxPYZ2YMqAACggALsACNtDTIADX0FubYJ2NxtY7PAPkRYrzOpnKhCDX1tX0tN09Zbxh8lNF9rMVK0m7kapiLXThNiV10naLhpcHQVHDqWUO7F/Q+DYiavIeYQyE6tPJYQMP4mcWB/yZHCD0yp2SgGt1F6oJemSFkF4BIItuzBn8J5wG0u5jQekuin22cR3s+X5RUHUyKS3DnJBIUO0zCv9RDAX3jK2jaPRDYEFwUplAe3tX1TXPOlMgCc6GSuWuIPf0kSYMwMSrQZYcgUAmRzYKMemtmR/BFyYXegc55Lrc7jX5zlccb/fcr/ceaRowlOEEPeAF0Bwg6/MbUEBTi8kq2fmppcY+qdP0AEZk5XITTq0BzCr7RAe8tfvCypWeK+GC4somizKedBOXC/Nj+BHdLETGsysjBJyCN+5AegLTBzCFPx0TzRqgcmIoB3Rj1YpElU/AOe/i+JQ5f7cxxKD57RtV4/BfE7Xu9GHr+JRUkT4/DknJY4TPnbfMuuEHCpOz+Sgvhc/t9giuJRRuTTPbLoFcJK1I3XNz4oNX3Zb1Fh3wLX2ou1BXE5QzEnZiaokKcNHEVxP16gW6chtX1U4/IKMZl3WoFa01Fe7NqpSrioxrsfzK93tO8QLlP7Ni786n5uHN/+H3BhdvrofWAKEfO3bFf/2sFJEA8+BCWK24ceGedv+OyfjbHN8V4XkXjjacxu7Hgza4tqd/GQ6jxgDyxOrlibphu640CLVgxIPsstWsOYgSUJAxCygldvFDwYzAkL/HiSYB1SOmdgiC7cYXnG6TupEB1TNS0wZq0FEAcN7EJlADaTXmyIsEdUWFsBAUPBkFUw//zb/yGl//zE3LamA+UexPKFSbnewsku7KHN6cz9oE/LZcXhu4JsdkCfReU4fvANlI7LBWXFO4PBG9IQ9ETusv9PgAX1zcxsk0qrmDO0Gt8EyLwJxGa/4g7InW7V/9oy8eMB3FYqrQqnZPydVFKvEDDGK3Fmwfbgwhlf8AFnDrb0GHEMNWAmHFehNdYRTHf+jTn/omfVanKkUaDg5z7j0nIGGODIzYkiqJlJvhq4zKC1KIVo3c9eNLDTEhaJwPDUG6Ik410g0GoLR607Z7//4IHyMX//gAXgbrOCP9Hx1ZLAGADw1AI5G22R9Z8pZzKK3BOxaSnj0vCBjY0eKj9pJvbEFEjrAY58CusBUXXyum9DHenGvTWJqmxClH5i0TiBOhaI5bB7WhorzQsXhWWwWBfa/da87uKYGEaE6v/Dee2dBIW9dMRqMpkq+PFITSAQHjAd4CZwvwbzux2IZBgNYAx9zag2t122OfWLxeJW4HzP1avVyqCstelruk85A1dkAvV9V1LnLd4IAx0eolpOkon8J22n5VvklO4jL1LNN0FZ3Hz6eM+Q1Ib1+yJRv9DaR4GlArKCRAIZpWcMtaA17GR/1s/qXbM9fVa/kis+kzDfGHSPYagOjwgX9SeUgA4ZZIzLFTZWwedFRtrbSY0BMZwgqylmy7wSn+MaCPmFSuvZ77RAFYpiTlCimOULLyRKK3XFbvxyzpzQHdTQuapk/o7J6VQNhw13egNqmxLOO/GJ6r8masABhDrtAOK/SE6rrxLEMnlRpl8zlG8W+ZA/sz82jpinT4Y2GjXOVs+a9oHpV9fw4ANunn24c91Oz60gvy+pq4VIFG5MKfKyhMuiTcX4UZlkKZsUumndXlTSwjUbof+NMqSJrpNvQPHLPpjLpVFV/ilvi+yi0o+4HOKQq0xIxDITxuN1nx9/boB0d7a11JpLcWdaIAkVj2WyMyZAh2GE5QQc6WoMRqxpMHa+CqoaIafceH2GJ6XRgPmC50vTuYWNyTo1i5QyfSv39JvL4qCB4MDKGMYnkf/jGtUUeKkMYvi1V96Re4T8vjiWJsNnemNEbEqQL3wuQumtL4kvrdg3rTkpkufx084va7+EwTGee6K4GuE9IR6lqQaD4br8SHvt9cYK4maAv8wFH4E+nxEmbi1/c+SSSDODXleQLFFuzxCzwtJdB5WY7yDmj6zQWBiUKMZ9rm+trraiHAQhVqkgOw9jEq/8V+5NoDjFxQCH2j4icsBED2pq2I5fLwPPfa6AASzyvNc105990+PKxDSZUg8V4/5koLei42+x2sqnxYsuvM2ZJXGdmJRyNPwBWNz0/XEAAAA=;" vertex="1" parent="1">
          <mxGeometry x="1133" y="839.9599999999999" width="54" height="58.08" as="geometry" />
        </mxCell>
        <mxCell id="1yYehOF_DNbkC2h0I6DK-47" value="&lt;span&gt;&lt;font style=&quot;color: rgb(0, 0, 0);&quot;&gt;Azure ML&lt;/font&gt;&lt;/span&gt;" style="text;html=1;align=center;verticalAlign=middle;resizable=0;points=[];autosize=1;strokeColor=none;fillColor=none;fontColor=#1A1A1A;labelBackgroundColor=none;" vertex="1" parent="1">
          <mxGeometry x="1125" y="898.04" width="70" height="30" as="geometry" />
        </mxCell>
        <mxCell id="1yYehOF_DNbkC2h0I6DK-51" style="edgeStyle=orthogonalEdgeStyle;rounded=0;orthogonalLoop=1;jettySize=auto;html=1;exitX=1;exitY=0.5;exitDx=0;exitDy=0;strokeColor=#736CA8;fontColor=#1A1A1A;startArrow=classic;startFill=1;" edge="1" parent="1" source="1yYehOF_DNbkC2h0I6DK-48" target="1yYehOF_DNbkC2h0I6DK-44">
          <mxGeometry relative="1" as="geometry" />
        </mxCell>
        <mxCell id="1yYehOF_DNbkC2h0I6DK-55" style="edgeStyle=orthogonalEdgeStyle;rounded=0;orthogonalLoop=1;jettySize=auto;html=1;exitX=0.5;exitY=1;exitDx=0;exitDy=0;entryX=0;entryY=0.5;entryDx=0;entryDy=0;strokeColor=#736CA8;fontColor=#1A1A1A;" edge="1" parent="1" source="1yYehOF_DNbkC2h0I6DK-52" target="1yYehOF_DNbkC2h0I6DK-53">
          <mxGeometry relative="1" as="geometry" />
        </mxCell>
        <mxCell id="1yYehOF_DNbkC2h0I6DK-48" value="" style="shape=image;verticalLabelPosition=bottom;labelBackgroundColor=default;verticalAlign=top;aspect=fixed;imageAspect=0;image=https://cdn.freelogovectors.net/wp-content/uploads/2022/03/azure_databricks_logo_freelogovectors.net_.png;" vertex="1" parent="1">
          <mxGeometry x="936" y="830" width="70" height="79.02" as="geometry" />
        </mxCell>
        <mxCell id="1yYehOF_DNbkC2h0I6DK-53" value="" style="shape=image;verticalLabelPosition=bottom;labelBackgroundColor=default;verticalAlign=top;aspect=fixed;imageAspect=0;image=data:image/webp,UklGRvYPAABXRUJQVlA4WAoAAAAQAAAA7QAA/wAAQUxQSFQHAAAB8AZt2/K22bbtkgVGhd2J7amT6RVmZoYyc1VmZgiTlEKYk8lVbsMpM2OY2TRXmBOzYzglbRfY0nmc+67z+HVNImICSOgHwP4BstUX/XfRfxf9d9F/F/33f7Tu5fegrXLNYVcyyE65J9ew+6fbRnmmGOD+YQOy0VdXgfuH9clGd98L7vnZZKO77wP3Y1eSje6xD9xPXEE2+pJtYD+VbLR3epjdUp+NSpwWBvPw0jSyz0nTwuC+vj7Z6HvD4H5wCNnofnng/q/BZKP75YP9Y2Sj++WDe2Ruio26LAfcI/OSyT4nLwb7XU3JPicviLDL7UtKnfYidX4E3HP6kNprRtqKF8G+6hpS22HnkaE2YughdqG3vGo6bAcODbUNQw+Bu/Gml5Q23wYAh4bZhGGHwP7nFFLqmoZatzW2BZ0Pgv2ebqTUPaWmtsjbPhuQ9hHY7+lKSt1TDNT9ti/u+d4Be+MeUjusHNG+nRbnfO+Afc1Ej5ruexF1+O74lvw22FdPcpHSzvsQ47Gr4tpt1fw+cJFS7weI+fhVceyqY2C/rT0p9U4zYsPxq+PWVcfBfmt7Upo0LQwz87Pj1MDjYF8+lNTeHYa5yxrEpQafg33Vay41/XJh9rIGcajBMrCvfDWBlPbLh/nLGsadBsvA/0sPKW2RC5VLnXGm/jLwX9eSlCYvhtKim+PMo+C/riUpTV0QUYMzN8WVm07zO96B1I6G8jM3xZGbz4B9xTMONUMPq8OZa+PGNWfAvvxZBykdeghW/Cs9TqT/Bv6LSW3vQ7DmJ+lxIf0T8P+1uZq0VbDqJ+lxIP0T8P+1GSn1vQ3rrkwUL/0T8N/dnJT63oaFL9wr3ijwL7uP1D4ISxf6hfOf51fyCKm96pi1UOgXzV8I/mNI7RXHYfXCOwXzF4L/d03VNPwD1t+dJVaPs+D/bSYpbfAxOH6TIVTGt+B/8B+ktNHH4PlNhkgZ34J/0T2kdhK4fpMlUOa34F94D6m96RQbzBNoJvgbD5Pam06Db/HD4jxcLMAnPjUDT4Nz6cPCPFwK/p+lk9ImX4F36cMOQRwPl4L/5ktIafon4F56lSAjSsD/7I2k1PE2+P+eLUb2b+B/+hZSe1exAPglW4jsXyDgs6T2rkKI+EszEZr/AgGXN1RzcyGEXOYUwPEBBFzekJRmrIeU5U872DmeKRfgq4akNOMbyFnxjIOZ45kK8D8xhJRmfgNJK55xsnI+UwH+x68hpY43IesFP6vbL4B/9W2ktt5fwmBLC0YtNkHAd5IVUa8cYbCuBZsW68A/8q6PlD8ZEgbrWjBpsQ4C/lmf1HuDIWHwdzMWl/4NAY8MIyt6giFh8LqDgSMAAQ8PJ2t6giFhKl9xWs75SqUA50aSVT1BQxZUveK0WMKrVRBwltMy5AkasqDqVZe1Hq8G/8jCVLKwJxCSBaWDLNV+HwRcmUKW9gQMWbClnYXabYWABT3J4p6AIQu2trNMu60QsGAAWd4TMGTB1jYWab0VAh4aQAw9QUMWLEmwRMICCBgZTSw9QUOW6gkuC7gmVAsQnpnEg9xBQxTUTHApc0+ogYDzE4mrO2iIgpoJHlWvGRBwXwvi6w4YoqD6ekXdDkHA/T2JsztgiILdXZV03Q0BT/Ym3u6AIQr2dFXQdQ8EDE10MCN3wBAFe7qa1mUPBDQCHmLvDhiiYHuGSZ4VEDA81UMCuoMhUSLTPKZ436iRYGNjErHRBlEQesNrgveNEATc2ZmE7LRDFITe8MaU+EYIAuZ0IjE77RAF4aAzlntDELDmGRK00w5RcLZ/DL1zIGD1WJck1HGHKMjpHVWfHEg4NYFk7bhDFOT0iaJPLiTceClJ23GHKDjQso6UHyDhptYkb8cdomBRUi1Jc0MSbG5NEnfcIUpkbhIRJc2NQMDKm0jmjjskQWRuEqXOiUDAyhcThKKOOyRBZJZ3chgCVj1HcrfZLAlKbzoHCYtfefBhse+fXyMJzkKzy/Rq60d6tfC2Mp0qu73FSZ062SLlU536NIVm6NQMohEV+lQxgqjVWX0624rIs1af1nqIaK4+zSUiGlKpS5VD/6ftaV3akv4/CZ/q0nKqdY4mhR+ubXCVHlX2qa3hej1a36g2WqtHa6nOe8I6FL6nrkGVOlQ5qC7feh1a76vL+YkOfeKsi/w65Kcoh5TrT/mQaFI26c+GlGhcq/RnHEV9j/7cFt3gYt3Jy44uZYPurE+KjkbpziiK0R/Wm7A/lswCvSnIjCV1nd6sS42FRunNKIrZX6MzNf7YMg7pzKGM2Hy/68zvvthovM6MIhNvr9KXs13MyDquLwVNzUj7QV8Wkqmj9GWUOR3O68r5DuZk5epKbpY5tFhXFpPJr+nKa2Z1LNGTko5mZe3Rkz1ZZtF7evIemf58WEciz5vXrUJHznUwr+k2HfnCbR6t0JGFpPDxiH7UDFfR4ZR+nOqkIuFb/fg2QQXN1Y+5pPSKsG6Er1DT/qhuHG2vxvWzbvzsUuOYrRuzHbEAVlA4IHwIAADwNwCdASruAAABPpFEnUolv6KhqBXpY/ASCU3cGDukABcGjn/ue2Y1z5Hkp96emP3GeH0hP1l+jpx3mH/rT08//t0J759+sn9v/FLw1/ylqROVjrt0YqsbX9QbpAegB+yRSThvhgEjwfpHtngkTWEIM+09yvFOkSPyYKDyWl9Ohorj2b/XMOSwhmADtb+jRywMAK1L4K1iPfXTMNsFpNtsp3y3diQ71NIsvStiT6RJCqTl/AWEekcBcydKpVKopoFWvOLE3LDNmCMvRMAOwEVbVGJbs4fFRwIcXapWCEkritzSZDyrMHcLXsgyND4EBgQBW1GfCuBjcYrGVHGIWp+1h9/uZyncRGBtZLQmGOn/f2jURqgg6hzQMLBTzWqEeSth7qqZyUCTCYu+/iw5eleWjQClocZSm1uUpG61q5zLcF+U9tt/EX8PXz8Z58FE0AJo1oNPBRoum1aL/xPt7UvIbEnR+WiXZ4uTNOkgSAaLOk+fT7o6JgpDClAwksPv+PJsLcBDpMh5rmjpFiolrTqP30HOBbcD7bSoHd4GfehTIkVOufcvhOO3BMw073/7ycsivv/5x+HUqg6izRUw1VJIjD4pljgPXYAA/t15QgGu5bZVijJtMdxLM4ZAkSQwK5q7Fbz+q1QmLCMzarqT1slNAJAY+MRtlryOaq+Fr47TmeH0ESTvVW17iezl/dpplVCDvUwwMNoqfVewZk4KxPYZ2YMqAACggALsACNtDTIADX0FubYJ2NxtY7PAPkRYrzOpnKhCDX1tX0tN09Zbxh8lNF9rMVK0m7kapiLXThNiV10naLhpcHQVHDqWUO7F/Q+DYiavIeYQyE6tPJYQMP4mcWB/yZHCD0yp2SgGt1F6oJemSFkF4BIItuzBn8J5wG0u5jQekuin22cR3s+X5RUHUyKS3DnJBIUO0zCv9RDAX3jK2jaPRDYEFwUplAe3tX1TXPOlMgCc6GSuWuIPf0kSYMwMSrQZYcgUAmRzYKMemtmR/BFyYXegc55Lrc7jX5zlccb/fcr/ceaRowlOEEPeAF0Bwg6/MbUEBTi8kq2fmppcY+qdP0AEZk5XITTq0BzCr7RAe8tfvCypWeK+GC4somizKedBOXC/Nj+BHdLETGsysjBJyCN+5AegLTBzCFPx0TzRqgcmIoB3Rj1YpElU/AOe/i+JQ5f7cxxKD57RtV4/BfE7Xu9GHr+JRUkT4/DknJY4TPnbfMuuEHCpOz+Sgvhc/t9giuJRRuTTPbLoFcJK1I3XNz4oNX3Zb1Fh3wLX2ou1BXE5QzEnZiaokKcNHEVxP16gW6chtX1U4/IKMZl3WoFa01Fe7NqpSrioxrsfzK93tO8QLlP7Ni786n5uHN/+H3BhdvrofWAKEfO3bFf/2sFJEA8+BCWK24ceGedv+OyfjbHN8V4XkXjjacxu7Hgza4tqd/GQ6jxgDyxOrlibphu640CLVgxIPsstWsOYgSUJAxCygldvFDwYzAkL/HiSYB1SOmdgiC7cYXnG6TupEB1TNS0wZq0FEAcN7EJlADaTXmyIsEdUWFsBAUPBkFUw//zb/yGl//zE3LamA+UexPKFSbnewsku7KHN6cz9oE/LZcXhu4JsdkCfReU4fvANlI7LBWXFO4PBG9IQ9ETusv9PgAX1zcxsk0qrmDO0Gt8EyLwJxGa/4g7InW7V/9oy8eMB3FYqrQqnZPydVFKvEDDGK3Fmwfbgwhlf8AFnDrb0GHEMNWAmHFehNdYRTHf+jTn/omfVanKkUaDg5z7j0nIGGODIzYkiqJlJvhq4zKC1KIVo3c9eNLDTEhaJwPDUG6Ik410g0GoLR607Z7//4IHyMX//gAXgbrOCP9Hx1ZLAGADw1AI5G22R9Z8pZzKK3BOxaSnj0vCBjY0eKj9pJvbEFEjrAY58CusBUXXyum9DHenGvTWJqmxClH5i0TiBOhaI5bB7WhorzQsXhWWwWBfa/da87uKYGEaE6v/Dee2dBIW9dMRqMpkq+PFITSAQHjAd4CZwvwbzux2IZBgNYAx9zag2t122OfWLxeJW4HzP1avVyqCstelruk85A1dkAvV9V1LnLd4IAx0eolpOkon8J22n5VvklO4jL1LNN0FZ3Hz6eM+Q1Ib1+yJRv9DaR4GlArKCRAIZpWcMtaA17GR/1s/qXbM9fVa/kis+kzDfGHSPYagOjwgX9SeUgA4ZZIzLFTZWwedFRtrbSY0BMZwgqylmy7wSn+MaCPmFSuvZ77RAFYpiTlCimOULLyRKK3XFbvxyzpzQHdTQuapk/o7J6VQNhw13egNqmxLOO/GJ6r8masABhDrtAOK/SE6rrxLEMnlRpl8zlG8W+ZA/sz82jpinT4Y2GjXOVs+a9oHpV9fw4ANunn24c91Oz60gvy+pq4VIFG5MKfKyhMuiTcX4UZlkKZsUumndXlTSwjUbof+NMqSJrpNvQPHLPpjLpVFV/ilvi+yi0o+4HOKQq0xIxDITxuN1nx9/boB0d7a11JpLcWdaIAkVj2WyMyZAh2GE5QQc6WoMRqxpMHa+CqoaIafceH2GJ6XRgPmC50vTuYWNyTo1i5QyfSv39JvL4qCB4MDKGMYnkf/jGtUUeKkMYvi1V96Re4T8vjiWJsNnemNEbEqQL3wuQumtL4kvrdg3rTkpkufx084va7+EwTGee6K4GuE9IR6lqQaD4br8SHvt9cYK4maAv8wFH4E+nxEmbi1/c+SSSDODXleQLFFuzxCzwtJdB5WY7yDmj6zQWBiUKMZ9rm+trraiHAQhVqkgOw9jEq/8V+5NoDjFxQCH2j4icsBED2pq2I5fLwPPfa6AASzyvNc105990+PKxDSZUg8V4/5koLei42+x2sqnxYsuvM2ZJXGdmJRyNPwBWNz0/XEAAAA=;" vertex="1" parent="1">
          <mxGeometry x="1133" y="934" width="54" height="58.08" as="geometry" />
        </mxCell>
        <mxCell id="1yYehOF_DNbkC2h0I6DK-54" value="&lt;span&gt;&lt;font style=&quot;color: rgb(0, 0, 0);&quot;&gt;Azure ML&lt;/font&gt;&lt;/span&gt;&lt;div&gt;&lt;span&gt;&lt;font style=&quot;color: rgb(0, 0, 0);&quot;&gt;Experiments&lt;/font&gt;&lt;/span&gt;&lt;/div&gt;" style="text;html=1;align=center;verticalAlign=middle;resizable=0;points=[];autosize=1;strokeColor=none;fillColor=none;fontColor=#1A1A1A;labelBackgroundColor=none;" vertex="1" parent="1">
          <mxGeometry x="1115" y="992.08" width="90" height="40" as="geometry" />
        </mxCell>
        <mxCell id="1yYehOF_DNbkC2h0I6DK-56" value="" style="edgeStyle=orthogonalEdgeStyle;rounded=0;orthogonalLoop=1;jettySize=auto;html=1;exitX=0.5;exitY=1;exitDx=0;exitDy=0;entryX=0.5;entryY=0;entryDx=0;entryDy=0;strokeColor=#736CA8;fontColor=#1A1A1A;" edge="1" parent="1" source="1yYehOF_DNbkC2h0I6DK-48" target="1yYehOF_DNbkC2h0I6DK-52">
          <mxGeometry relative="1" as="geometry">
            <mxPoint x="971" y="909" as="sourcePoint" />
            <mxPoint x="971" y="984" as="targetPoint" />
          </mxGeometry>
        </mxCell>
        <mxCell id="1yYehOF_DNbkC2h0I6DK-52" value="&lt;span&gt;&lt;font style=&quot;color: rgb(0, 0, 0);&quot;&gt;DataBricks&lt;/font&gt;&lt;/span&gt;" style="text;html=1;align=center;verticalAlign=middle;resizable=0;points=[];autosize=1;strokeColor=none;fillColor=none;fontColor=#1A1A1A;labelBackgroundColor=none;" vertex="1" parent="1">
          <mxGeometry x="931" y="904" width="80" height="30" as="geometry" />
        </mxCell>
        <mxCell id="1yYehOF_DNbkC2h0I6DK-58" value="" style="edgeStyle=orthogonalEdgeStyle;rounded=0;orthogonalLoop=1;jettySize=auto;html=1;entryX=0.5;entryY=0;entryDx=0;entryDy=0;strokeColor=#736CA8;fontColor=#1A1A1A;dashed=1;startArrow=classic;startFill=1;" edge="1" parent="1" source="1yYehOF_DNbkC2h0I6DK-35" target="1yYehOF_DNbkC2h0I6DK-57">
          <mxGeometry relative="1" as="geometry">
            <mxPoint x="692" y="365" as="sourcePoint" />
            <mxPoint x="743" y="720" as="targetPoint" />
          </mxGeometry>
        </mxCell>
        <mxCell id="1yYehOF_DNbkC2h0I6DK-57" value="" style="editableCssRules=.*;html=1;shape=image;verticalLabelPosition=bottom;labelBackgroundColor=none;verticalAlign=top;aspect=fixed;imageAspect=0;image=data:image/svg+xml,PHN2ZyB4bWxucz0iaHR0cDovL3d3dy53My5vcmcvMjAwMC9zdmciIHhtbG5zOnY9Imh0dHBzOi8vdmVjdGEuaW8vbmFubyIgd2lkdGg9IjE2LjQyMDAwMDA3NjI5Mzk0NSIgaGVpZ2h0PSIyMC4wNDk5OTkyMzcwNjA1NDciIGZpbGwtcnVsZT0iZXZlbm9kZCIgdmlld0JveD0iMCAwIDE2LjQyMDAwMDA3NjI5Mzk0NSAyMC4wNDk5OTkyMzcwNjA1NDciPiYjeGE7CTxzdHlsZSB0eXBlPSJ0ZXh0L2NzcyI+JiN4YTsJLnN0MHtmaWxsOiM0Mjg1ZjQ7fSYjeGE7CS5zdDF7ZmlsbDojNjY5ZGY2O30mI3hhOwk8L3N0eWxlPiYjeGE7CTxwYXRoIGNsYXNzPSJzdDEiIGQ9Ik04LjIxIDBMMCAzLjQydjUuNjNjMCA1LjA2IDMuNSA5LjggOC4yMSAxMSA0LjcxLTEuMTUgOC4yMS01Ljg5IDguMjEtMTAuOTVWMy40MnptMCAzLjc5YTIuNjMgMi42MyAwIDAgMSAxLjAwNSA1LjA2QTIuNjMgMi42MyAwIDAgMSA2LjM1IDQuNTZhMi42MyAyLjYzIDAgMCAxIDEuODYtLjc3em00LjExIDExLjE1YTguNjQgOC42NCAwIDAgMS00LjExIDIuOTMgOC42NCA4LjY0IDAgMCAxLTQuMTEtMi45M3YtMi4yNWMwLTEuNjcgMi43NC0yLjUyIDQuMTEtMi41MnM0LjExLjg1IDQuMTEgMi41MnoiLz4mI3hhOwk8cGF0aCBjbGFzcz0ic3QwIiBkPSJNOC4yMSAwdjMuNzlhMi42MyAyLjYzIDAgMSAxIDAgNS4yNnYxLjEyYzEuMzcgMCA0LjExLjg1IDQuMTEgMi41MnYyLjI1YTguNjQgOC42NCAwIDAgMS00LjExIDIuOTNWMjBjNC43MS0xLjE1IDguMjEtNS44OSA4LjIxLTEwLjk1VjMuNDJ6Ii8+JiN4YTs8L3N2Zz4=;strokeColor=#D0CEE2;fontColor=#1A1A1A;fillColor=#5D7F99;" vertex="1" parent="1">
          <mxGeometry x="727" y="640" width="32" height="40" as="geometry" />
        </mxCell>
        <mxCell id="1yYehOF_DNbkC2h0I6DK-59" value="&lt;span&gt;&lt;font style=&quot;color: rgb(0, 0, 0);&quot;&gt;FederaciÃ³n&amp;nbsp;&lt;/font&gt;&lt;/span&gt;&lt;div&gt;&lt;span&gt;&lt;font style=&quot;color: rgb(0, 0, 0);&quot;&gt;de identidad&lt;/font&gt;&lt;/span&gt;&lt;/div&gt;" style="text;html=1;align=center;verticalAlign=middle;resizable=0;points=[];autosize=1;strokeColor=none;fillColor=none;fontColor=#1A1A1A;labelBackgroundColor=none;" vertex="1" parent="1">
          <mxGeometry x="755" y="640" width="90" height="40" as="geometry" />
        </mxCell>
        <mxCell id="1yYehOF_DNbkC2h0I6DK-62" value="" style="edgeStyle=orthogonalEdgeStyle;rounded=0;orthogonalLoop=1;jettySize=auto;html=1;entryX=0.5;entryY=0;entryDx=0;entryDy=0;strokeColor=#736CA8;fontColor=#1A1A1A;dashed=1;startArrow=classic;startFill=1;" edge="1" parent="1" source="1yYehOF_DNbkC2h0I6DK-57" target="1yYehOF_DNbkC2h0I6DK-61">
          <mxGeometry relative="1" as="geometry">
            <mxPoint x="743" y="721" as="sourcePoint" />
            <mxPoint x="743" y="834" as="targetPoint" />
          </mxGeometry>
        </mxCell>
        <mxCell id="1yYehOF_DNbkC2h0I6DK-61" value="" style="shape=image;verticalLabelPosition=bottom;labelBackgroundColor=default;verticalAlign=top;aspect=fixed;imageAspect=0;image=data:image/png,iVBORw0KGgoAAAANSUhEUgAAANIAAADwCAMAAABCI8pNAAAAflBMVEUAeNf///8AcNUAbtWlw+wAddYActawzvDP4fYAdtcAbdSMuOn6/f6Esueuye7R5PfD2vP2+f1Xl98zitzl8vsng9qdvuoAatS+1vLw9/zh7fl4rOUWf9mlx+1amuBGkd5spePc6fhvp+RfnuGUvOp+r+a20vEuh9sTgdq31vIXKrl+AAALY0lEQVR4nO2deXeqPBCHITRREKvWBRfc6tb3+3/BF9RWZJlMliH2nv7+uufcanxISCaZJZ7/z8mjbiCe7Lvzzvv67W3dOc+7y8mIukVCpMWg0/+YeixijImrsn8EwptueuvuhK5dGqTFsLfxkkAIHnoVhTyDi8Tm2KXpMPtIo+FpnHULr7I8i4tAbHtD+1iWkSbrD85ETdfUKxQB374t7f4Gm0iD3lci751qb0Vpb2/xZ1hDmvTSCN89JYnoMrM2YVhCOn8woYlzUyjYx9DOb7GBtOgJpjzequJB+mZjsjBHWq4MO6ggxvvm488UaXKwB5RLsM+FU6TJLrEw4kpQycoMygRp1A+s9tAPlDg6Qup4JEC5WGow+2kjTbYRFVCmMNpojz5dpLWNaRuS4OdWkeJNQAuUK9q1iLSne4uKEt6+LaQz07XlFBUyncGngXSknBdKit7aQFq1SOR5SZ8e6ZO1SeR5gTKTKtKqZaKMqUeLNGt11N2UrCmR5g6IsjliToe0b33U3RR0qZAWrSywdWIqG0MVpDGxWdcsPo1JkE6Ohl0ucaBAmifuiLLXaWYfyd2LdFO0t460dfYi3RSmtpHWLWyQYImVXaSJ4bDLHTC8zjOjoAi5OiGRPrSHHRcsSvh2t1rtNmMviRBumgZhhx4OSdMQ4oylh9mw6GxZzo+HVBOL4c7CcEip+pAJRZR+nutX/eV6w3WOYwTKiEAhHZUXWRFNZ6AnLJ4fEmXfDW7BxSCpLkkh8057+dfG62mg2FXRwBLSSQkpDC4drEU23EZKPcW3dpAWSnMD+1La3XQvSgseZiJHIK0UOkl4HRWgXGeVQ0FMN8mRVN6kaKfhxot3CsMgkL9NcqQeGilkajvqHymcdXL5pCdFivGtpdpOyWWInvoiaSNSpA52TeIXA9/xJMUyCem5nhRpiuylMDVyRy7QBoowRepiX12lE48aTbCjgcnmVBkSdgZXPGur0RD58PiHGVKMfHRC071VVB/ZT7LxIEE6Y4eDwqFUo5CHakLioJEgHXCtBMo2Q50muKEnsyBgpBj3JoUXG0ToTUwAz60w0hDXBvZUQCrciiGZ82Ak3HyHMvlRmqPMcolRBCNhGsgGgqVAOh97WgivtiDSHvW+hlNrRP4A1SJsjoNIa9S4k02qShpj3iYBHpCDSLgpPDENoCsKtRDyjTZSiiGCv19ZqDbBQ0oICWdJ6u77GoTacTLoQA1CmqOQuA1b6CGUPxh8jBDSEfPAEDtnNV0QEwQYVgkhbTCzg1bkEiTMgwSfI4T0hZlQmc35LtcAYUGASyGAFGOsE1sWa0Gol0kPaYlZyeWnG8rC+LKgcyIACWWGW57Cc2FeJgbY/gASyhyyajrchFk7oEkJQMIds1onQm1uISsP+EmYzZJla+iqGPEuQa8wgIRZlsxSCRqEWGz5Z/PHAaQtYlmyvtBeG5Y/S2h0AEgYywQfBqMgxJ4GOhsAkL7kRF5AkRqLeIkh8wFAQhDZOZIsCzPVAjsmAAkx7gjMoUwzzOrR/HHgvxATnvTIXUsYJN78cUMk25ulq5wioQPKlOQWSTXSHiW3SPiIUwX9IZX1h/SHpKc/pLIMl9rToGtdgxOi5VAJabTvHFeb8Vj+vXmNBgKh/CXj8cdnb92tOfooIy2P4yRgebWdlhJNdRWGPC/+k3z19yBSZ6xf/8SRQhFN13ET0nxKnXhOo5B551qk+KAWOvtSijajKtIkdZzNYybxiG/8RlryXznmHuJ8+Yy0ePUJTq7QWzwhuU64sqHvg7Ab0sxh5qI9sdkDafFPEH17JK9In796sntInL6R2uikdqYfMbojoYIBzMQv2zZGAlvfkVCecyPlE+ylBaZwfENCuZnNWuLZ0h5fWlgocj+rhw1RM1DoXY2VNphyb7iHjjLWVhjeTZXRFzlT7vD0tNIxVRQ+wrIW6GQRXeUWhOcvqItz7R9bGXomL0da0mafs6c41IVHPLvyRYbUJV1oyyHkE8NEdZmCZYaETqvQUTUwZkJrRwT7DKlDOIdHNRHkS9IDm+wZev47HVJSGxO/p1wHs4XJwyf7KaspTYuSiXUokaLGyJUB3etLipQA+StdsoWDEikCM3LImAiRIkm5NGwyo6rokBKp44moiBsZUoRwpZ1JmKiQIlTgYYeCiQgpQgZadwiqhNEgBSccUbaftt9PJEhMIa7IPhMFEgMCaauyXo6TAEmNyH6pXvtITDn9vmeXyTqSSv3EHyartpFtJL7x47LKBNU/wERuoGV/4PGSWDmeexSV/8TumRHtfilXJZ53ROwlcYFEfFr9h6ShPyRzGSAhHWDaSOKi86tMkEQPZ3HqIrHVWa87DZD6OOtMEymzFDVPTI2QUNaZHlJuKTpBwjBpIbHcUnSD5PelFqcOkrjm+TlC8lcyJg2kG5EzJOlFHupI4m7oOkPyd/CnlZG+iRwi+Qfw46pIP0QukfwN1LYiknikS7pEApnUkPglfg0kHwjiUkLi00LisVskgIlvF5MnLQH8tJhK7RgJYoqe1byQ8a+n5HDXSP7YeBvES3VfnSPFpgGEYVhK23GOZBpsdw/Zo0cSjYoqDpd4asAUepW6Y+9Jc+v6SGmvWdUojZE+UyiqldS6/ca2j8AmHkZSLbiozRTyvVpLQPElu0jaAYTFIMQXQ/IXng4T6qYHV0j+RCMoEqpl9QJIGgGEOkVfW0VSDiCsD9l7KSR/qUSkV7itZSRcMdm7hOJdk26Q1AxYvTsK2kVSNMm5p8PUKpJyllJ5T/FySB/q5nNp5/dqSBpE5f35iyEd9LY4xXOhF0OSHLw2S4wVmbSRvHQ4n8/P5877ej07Hnu9fv+0Wn1+7naHzbYa6alNlDNVf/Zy2KguUF9RtqtlNz3tKO9RJ5XASKObu0W1KOFbwhoFLOYWzx4Mb+6uMjk/TpE6mqRfWGZyjWQhqE5sXgrpCPRRWFLzV25eCAkMFxiXBPyazcsgQSG31ZKxQGtPUaQukcAwFbV4vCKTQ6Q1GJKvGGJYiF92hyRJMlCNmgxWzpFkqSDKgaA/2Q2ukM6yRBD12NbvHBRHSPK0Ko1w3ajnEAlxp5VOBPIt+8kJ0hCRfqQVVH3NunOBhEpQ1IsTz3Mj20fqoW7g0Q19z5haRwoxV4Z4+tH8Saf12Fas00U7QUGgrhWq6pVzLjSdpK+MpKk/JA39IZnLfi5gufZvUskySyr1ge1mjNrOBfxvUNa+hORX/mIwsNa+Zx9J7+Jx5P3IOFkfeDpOPfNQvqIIMjaV+8lydUOCGU/VAWa7XiPFJK7mANPyG0IiWZdUHGDWiYiWWjwTmAigJyLroc6pVycDv2GjqAyiGqdeS0R0Nh6GycgT2ig6s1VIr88y9IQ2idASLzv1yjoRFfWi3FzATH2qir6k+yUGFB2xXDCl2CrpFrC5NIztsjbFRml3tU0FfAiJbkiERU6D2sJR1sspFcXOGRLqPmRNBTUFywgKeRV0rQi6pywYXC3CRkvkBYMMaUJ6ZlMulUdSFK+ga8Fg3I2n2npmoildWNC1rDP1TSTFIo1zgiJ/z0qvJdJxN3HrK/mJb0d4Qg2VR8N4yCvgTfRd8LRLfq/B9Xrt/FII8md3K7TbApEXdG9I1PcNZExnn7gU+13MvyENybvJi+aky9+3+O6ORH2HwrWxVi54upZkvyKt2xgTLegW2X67UqqFbmpD7P2BRFU3ul2Ft8vV73eZERwStq974fw70uj33zj3c9rxfS/goI05llQ8jZ+RqEqWt6ZHeYXHHZvzX3zFZvHyxgKSv/d+7xzBxg/vY/Fy1/gz+p2XOIqnO6ifr+DdfyS/7Qpej7Oo/+QgLl+UPJmNRcDq63u8oFiQ7sqXntRcZ73odt5+iTrDaoWSOqTfrv8BSArJ8AAwDwEAAAAASUVORK5CYII=;" vertex="1" parent="1">
          <mxGeometry x="727" y="726" width="30.63" height="35" as="geometry" />
        </mxCell>
        <mxCell id="1yYehOF_DNbkC2h0I6DK-63" value="&lt;span&gt;&lt;font style=&quot;color: rgb(0, 0, 0);&quot;&gt;Azure&amp;nbsp;&lt;/font&gt;&lt;/span&gt;&lt;div&gt;&lt;span&gt;&lt;font style=&quot;color: rgb(0, 0, 0);&quot;&gt;VPN Gateway&lt;/font&gt;&lt;/span&gt;&lt;/div&gt;" style="text;html=1;align=center;verticalAlign=middle;resizable=0;points=[];autosize=1;strokeColor=none;fillColor=none;fontColor=#1A1A1A;labelBackgroundColor=none;" vertex="1" parent="1">
          <mxGeometry x="632" y="726" width="100" height="40" as="geometry" />
        </mxCell>
        <mxCell id="1yYehOF_DNbkC2h0I6DK-68" style="edgeStyle=orthogonalEdgeStyle;rounded=0;orthogonalLoop=1;jettySize=auto;html=1;entryX=1;entryY=0.5;entryDx=0;entryDy=0;strokeColor=#736CA8;fontColor=#1A1A1A;" edge="1" parent="1" source="1yYehOF_DNbkC2h0I6DK-65" target="1yYehOF_DNbkC2h0I6DK-67">
          <mxGeometry relative="1" as="geometry" />
        </mxCell>
        <mxCell id="1yYehOF_DNbkC2h0I6DK-65" value="" style="shape=image;verticalLabelPosition=bottom;labelBackgroundColor=default;verticalAlign=top;aspect=fixed;imageAspect=0;image=https://symbols.getvecta.com/stencil_28/61_sql-database-generic.90b41636a8.png;" vertex="1" parent="1">
          <mxGeometry x="506" y="834" width="70" height="70" as="geometry" />
        </mxCell>
        <mxCell id="1yYehOF_DNbkC2h0I6DK-67" value="" style="shape=image;verticalLabelPosition=bottom;labelBackgroundColor=default;verticalAlign=top;aspect=fixed;imageAspect=0;image=https://w7.pngwing.com/pngs/252/727/png-transparent-power-bi-business-intelligence-microsoft-analytics-microsoft-text-rectangle-logo-thumbnail.png;" vertex="1" parent="1">
          <mxGeometry x="322" y="841.96" width="54" height="54" as="geometry" />
        </mxCell>
        <mxCell id="1yYehOF_DNbkC2h0I6DK-71" style="edgeStyle=orthogonalEdgeStyle;rounded=0;orthogonalLoop=1;jettySize=auto;html=1;entryX=0;entryY=0.5;entryDx=0;entryDy=0;strokeColor=#736CA8;fontColor=#1A1A1A;" edge="1" parent="1" source="1yYehOF_DNbkC2h0I6DK-82" target="1yYehOF_DNbkC2h0I6DK-67">
          <mxGeometry relative="1" as="geometry" />
        </mxCell>
        <mxCell id="1yYehOF_DNbkC2h0I6DK-69" value="" style="points=[];aspect=fixed;html=1;align=center;shadow=0;dashed=0;fillColor=#5D7F99;strokeColor=none;shape=mxgraph.alibaba_cloud.user;fontColor=#1A1A1A;labelBackgroundColor=none;" vertex="1" parent="1">
          <mxGeometry x="32" y="845" width="49" height="49" as="geometry" />
        </mxCell>
        <mxCell id="1yYehOF_DNbkC2h0I6DK-70" value="&lt;span&gt;&lt;font style=&quot;color: rgb(0, 0, 0);&quot;&gt;Equipo&lt;/font&gt;&lt;/span&gt;&lt;div&gt;&lt;span&gt;&lt;font style=&quot;color: rgb(0, 0, 0);&quot;&gt;comercial&lt;/font&gt;&lt;/span&gt;&lt;/div&gt;" style="text;html=1;align=center;verticalAlign=middle;resizable=0;points=[];autosize=1;strokeColor=none;fillColor=none;fontColor=#1A1A1A;labelBackgroundColor=none;" vertex="1" parent="1">
          <mxGeometry x="21.5" y="894" width="70" height="40" as="geometry" />
        </mxCell>
        <mxCell id="1yYehOF_DNbkC2h0I6DK-72" value="&lt;span&gt;&lt;font style=&quot;color: rgb(0, 0, 0);&quot;&gt;Azure DB&lt;/font&gt;&lt;/span&gt;" style="text;html=1;align=center;verticalAlign=middle;resizable=0;points=[];autosize=1;strokeColor=none;fillColor=none;fontColor=#1A1A1A;labelBackgroundColor=none;" vertex="1" parent="1">
          <mxGeometry x="506" y="904" width="70" height="30" as="geometry" />
        </mxCell>
        <mxCell id="1yYehOF_DNbkC2h0I6DK-73" value="&lt;span&gt;&lt;font style=&quot;color: rgb(0, 0, 0);&quot;&gt;Power bi&lt;/font&gt;&lt;/span&gt;" style="text;html=1;align=center;verticalAlign=middle;resizable=0;points=[];autosize=1;strokeColor=none;fillColor=none;fontColor=#1A1A1A;labelBackgroundColor=none;" vertex="1" parent="1">
          <mxGeometry x="317" y="898.04" width="70" height="30" as="geometry" />
        </mxCell>
        <mxCell id="1yYehOF_DNbkC2h0I6DK-74" value="&lt;span&gt;&lt;font style=&quot;color: rgb(0, 0, 0);&quot;&gt;&lt;b&gt;Analitica ML&lt;/b&gt;&lt;/font&gt;&lt;/span&gt;" style="text;html=1;align=center;verticalAlign=middle;resizable=0;points=[];autosize=1;strokeColor=none;fillColor=none;fontColor=#1A1A1A;labelBackgroundColor=none;" vertex="1" parent="1">
          <mxGeometry x="800" y="807.96" width="90" height="30" as="geometry" />
        </mxCell>
        <mxCell id="1yYehOF_DNbkC2h0I6DK-75" value="" style="outlineConnect=0;dashed=0;verticalLabelPosition=bottom;verticalAlign=top;align=center;html=1;shape=mxgraph.aws3.instance_with_cloudwatch;fillColor=#F58534;gradientColor=none;strokeColor=#D0CEE2;fontColor=#1A1A1A;" vertex="1" parent="1">
          <mxGeometry x="415.5" y="633.5" width="50" height="53" as="geometry" />
        </mxCell>
        <mxCell id="1yYehOF_DNbkC2h0I6DK-76" value="Amazon CloudWatch" style="text;whiteSpace=wrap;html=1;fontColor=#1A1A1A;align=center;verticalAlign=middle;" vertex="1" parent="1">
          <mxGeometry x="451" y="640" width="150" height="40" as="geometry" />
        </mxCell>
        <mxCell id="1yYehOF_DNbkC2h0I6DK-80" value="" style="shape=image;verticalLabelPosition=bottom;labelBackgroundColor=default;verticalAlign=top;aspect=fixed;imageAspect=0;image=data:image/png,iVBORw0KGgoAAAANSUhEUgAAAlgAAAE7CAYAAAAB7v+1AAAAAXNSR0IArs4c6QAAAARnQU1BAACxjwv8YQUAAAAJcEhZcwAADsMAAA7DAcdvqGQAAFtHSURBVHhe7b1/mF1VmecbQozO3Dv0/MQ7d+bq3LkzOr+uzsy9o/9Ba9sgtg3YKrFthW5FQVtIi3TqnOJH8UMDaHd0xI7DjMRnmhanoUlwnjwRhUkc0CBcLEidcxJIUyEhpKBIUuRn5Sfsu75rr3eftddee599Tu1TdfY+38/zvI8PpuqcU1XnrP3Z7/uudy0ihBBCCCGEEEIIIYQQQgghhBBCCCGEEEIIIYQQQgghhBBCCCGEEEIIIYQQQgghhBBCCCGEEEIIyce1zbMXjTTOWbSicYn63zGJxfXmxna0ps6stwI7lqSE+3WLa60Z9f3RYy2qtVa2n6d5mfrfcxaNbHubeTWEEEIIISXClqhac+0Z9eZmEaU3jbaCpVa8eXSrjrdcV2zI49rPhecWMVMyNr6o3thg5OtS/ZpveGGp+QkIIYQQQhaA+sQ7woyQEpR6c5Vkn0SiRKRsefobiOvD+JvXb0vE/+LGDTnD+T7fY8vz4jXYEubKV5gFa25U0rXaCOJ5i0ab7zI/NSGEEEJIgUCoahNXICMFCbGzUW4GSkRK5CaSHyVD/6uKvxXFszrOujE7fi0lfF9rhzy+PB+e25aymHxZrx8h8tUWr+asznjVGsspXIQQQgjpDfQqoW+p1rxXMlO2TLkSFYmUERlbokR4bDn62xJjYfydsecKDXnc6HlUuGJmC1gkX9bP42a9RLok0wXZ1NIJ+SSEEEIISYAGdPRN1VprFtebO7KEKilSGRLlyNPfRdz0XPD3PPH3b9oei39wc75wv8/32HhOHdZrEQGzX3NcvpLilSpcSkIho2EzPRvpCSGEkOFFN6I3Vy+uNbdCElAOyxIqW6ZcibJFyidRtjCd7Ym33iLx19743zzh+7r24ySfwxWymHyZ1x6JlyNftnTlE67mDsiq+h0vY/M8IYQQUnXQPwSpqrembKHSUuXNUDlCZYuUkROfRNkiJeJky9E/lLg1jP+94JDHjZ5HRVzM0uUrS7y6FS78jnU5sa5kC5sCCCGEEFIRdD/VxIhkqpBlkSwVpEBLVZpQqbCFSuQjTaJskRKBssXnH936fPCPvhrGPzbxf6TE276WL3zfi5DHR+jnVM9tvxYRMFe8bPlyxQu/g26FKyZbYWZrJfu2CCGEkDIy9vRZi0aal2LkgE+q7LIf5ECkKiZUKnxCZWekogyRJS4iUa5AhUI0GbzdE/9kZXb8n074vsYO33PguW0hS5OvNPGyhUt+L52ES/dwiWyp3z3+BlEZsdYY103y6H8jhBBCyABTn7hQ7/yrNWdjPVVS/rOkSoRKyn65hcojUnGJiouULT6hIO0I/qnEbe34vwqM6HHN8+A5w0hKmIiXK18J8TK/g9zCZX7HoWyFv/s02dI7EtETx34tQgghZEAIRyok+qrsbJVb/oukyoiB9E91Eqq4TLUlxRapmEQZ0RHx+Wd23B7GP4/ihVi8I2e43yePJ4+vwzxnQsIyxAuBnzEmXUa47CxXpnBlyJYWLbeEqMc/oDl+y3vMX5cQQggh8woa1mvNe9NKgKlSpSIpVekZKp9Q+UQqTaJEnnxy9M478sW/cML3NWnhPqdImC1eiDzi1Ytw2ZktKSOGotWhhKgnyrMxnhBCCJkfkN2oNdfGxCqjBNhRqlKF6nm/UBkR8UmUK1Ku7Igg/cs7dibj62H8qx5Dvt/32GliZr/WRPbL/Hxx6YpnuWzhskuK+J2KbIloRY3y6m/RSbYkq4W/Mc5y1KVfQgghhPSBkcY5iaZ1JVaSrRKpimWr1AUdF/W2VG2PMlUiVVL2606o4nJiS4tXoiwRkvjXnvg3bnwjRzjf4z6m+7yuhPnky/7Z8LP2Kly5Zcv83ULZime12uXDxrju0yKEEEJIAdQnLsTFFWIl/VV2GTDKVuWQqihb5UiVT6giqXKEKlWkHJFBiOREAqSlaFfwf6fEu9LiT5zwfY0K32Mi8JxhxCXMfb22fLni1Um47JKiLVuxUqL6G4SylaeEGGYkE6KFUQ8jzUvNu4MQQgghXYExCyliFSsDGrHChTqzBJgiVcjEJIVqR7ZQWVIishKJVIpEaQkygvRuT/zbKF7sMcLv9z22LWbu6/KJF8KVrq6EKyFb/qyWV7ZMVitNtPA+iEQLh09z5yEhhBDSAVwsw/lVO2RHoN247oqV9Fb5slVaqmIlQLv8185UQQpsoXKlKk2ofCJlS5QtUq44/bs/9ce/n2P4HlPCFrGEeCGcn0XEq3vh6k227BKiX7SeTREtnINI0SKEEEL8oMeq1tyaECt1Ue0sVuFFOluq2tkqLQA6U5UiVCoSQoWwBERkKi5RbZFyBUck6P9BrIrH/7tqd6HhPj6eM03EfOIVyZf183YjXK5sadFSAbFti5a/hJgQLRW6fJhHtNgMTwghhBgwyduMW8gSK1xkO4lVKFX+EmBHqbKkIZ9QJUUqTaJs+fkPVnxr/auxuPuRfcGmLYdi8dT2w8Gu6eOxeGbySOLr7tm0P/F4F9z5UvRc9muwX5stX/bPIj9f18JlZEt+v6FotcuI/qxWKFtRVsv8XXOLlpmnBdFaVG9s4FE8hBBChpta42oMl5RdgW2xCi+iWWJllwGTYpVeAvRJVT6hCqXKlilbpGyBQUBqrv7zl7Xo/HT8YPBo45CWowNHTgXzzZHZ0/q5H992WMsYXlPth68kxAvhildXwmV+l1q0EF3IVi+ihfeHm9GCpC+pNWf1mYcsGxJCCBkqVmx5DxrYkXGAWMm4hUTGSl1MU8VKXYRDsWqXAe1sVVqjOi76km3RYvWNnW2pMuKQJlRaqhyhQpYIwnLfYzNaXp7bPRvs2XvcqM3gMz1zIpicOqZf+7rNM/pnWXbXnjkJVyfZkr9LsoQY/h07iRY2MyQzWmGfnp3NWqz7s5rnmXcdIYQQUlFwCHOttcZfDkzvscLFNU2s3DKgiFVuqUIYScgjVFLaQ0aqTCLVLRAvZLxQtoREusIlv5+4cLVlS36/UkaU339WVqujaKnAewGbGVzRwnsHooXRHbFslnqvLRppbNBHKhFCCCGVozbxebsc6GatkInAhbJ3sWpnq0Sq0kqAWVIlZT9bqG5fN60zPCizDSuQSUjl6of2pgqXLVtuVquTbGWJFv7e+NujId4nWrp0iGyWmaNllw3xXsN7DgeAK9EaY9mQEEJINRhtvgvHnbi7A+0hoVIOREYiqxQY9lcpsVIX3yyxEqlKZKsiqWqLlStVIlTom0Lp7NSp141iEBsIl/Rz2b1ceWQrUUJMES38fUPRau8+9ImWlA4hWp3LhpifxbIhIYSQsoJMQa218sx6+2ibTuVAmWPVUazUxTdLrHDx7kaqEJAq7Ng7duK0UQiSF0hoc+dRXU4U2dKZLfO7FtHqVEJ0RQuRJVpR6VBns0LRyl02rDXX6pI1IYQQUhpGtr1NslZdlQMhVtGuwKLEqp1N0WJlSRV2+SELsxA7+6oKdixCVG+6fzr6PUtWy5WteFbLEi0VaaKF94GIVtSjpd4zPZUNkc3C4eGEEELIwKPPDoyPXshbDkTpxx63EPVYqYurXGi9YmXKgL7eKjdbhR1y2PFX5Qb1QWHfwZPB+idfCy6/eyohW4msVgfREtmSnYdhRivMZuE9E5UNtWTlKBtKNkv3Zk2MmHcvIYQQMmCgJFhvrop2CFpZq+7LgRk9Vubi6xOrRBnQSBXKVihfoYzFnqqFAf1sEFtpkMffBuKLv1UoW9miBaG2RQvSjfcIJNxXNrSzWW7ZULJZdm+W3mnIkiEhhJCBoj7xDrskKL1WdtbKVw50s1ZSDgzFqj1uoVexQuYEowZQtiKDAQQXk+ilhJgqWipC0drlFa0wm6VES71XOpUN07JZ0pvVLhk2plgyJIQQMhisaFySVhJ0e61QunGzVmnlwEisUkqBYRlwV3RhtsUKvVW4iJPBBkNZXdGyy4dZoiWlw1C08pcNdTYLkhX1ZjklQz03iyVDQgghCwVKgiPN1ZklQSVW0mslWatkE7u/HJhXrOz+KlysKVblA/PFMO4Bf0MtW+pvmi5aVulQvUds0cpTNpRsVq6SIc7JJIQQQuaN+sQ77KNuskqCdq9Vt+XA2HDQDLHCiAVkQ0i5gWihVy5TtMz7Ae8NfzYrvWzYzmZ1UTIcaZxj3vWEEEJIHxlpXtpNSVB2CNpZq67KgeqiGmat2mIlF2BkPYZ5unpVwTE97kyttmjZ2SyrbOhks3xlQ53Ncnqz8pUMG2Pm3U8IIYT0gZHGjV2XBNVFDRe2ZNYqXg60s1ZarFTYYmX3WOHiyzEL1QfzybDzMBKtSLKyy4Zp2SzpzeqpZFhr3stjdgghhBSPOaS5l5JgrNcqM2uVLAfaYlX74SvMWA0hyGjd/mC7Gb77smG8N6uXkiFHORBCCCkWfeRNc63db9VrSdDuteqmHIjZSThomDOshhtsYMCg2KRo2dmsZNnQzmb1UjKM9WXVGuOULEIIIXMDF5Jac6NXrnosCdpZqzzlwNUP7eUcKxKBsyLXbZ7R7w0tWpFkJcuGvmxWbyXDdl9W2Pze3IHjoMynhBBCCOkCbFF3dgq6/VY9lQTVBc/NWvnKgZhlhenfw8LB46eC/bMnzX91z/HTrwd7Dg/P7ws9eNg9msxmhaLly2b1WjKM+rJsyaq1ZhaNNt9lPi2EEEJIDtTdOe7S7Z2CIlduv1VvJcFk1souB/50/GClyoGQnxcPHgueevlQsHHXa8H6HfuDb26Z0nHezyaDf78xjL/cvtd8R/fg8eVxELeN79GPv+75ffo58dz4mqMnq5UNxMHSUdnQkawom2VJVt6SIcrdqZJ1fbjDUEtWrXme+dQQQgghGai78sW1ph7DgLt1e6egr99KBod2VRJUFz5cAN2s1eof79UHBJcZZKImZ2a11KxuvBxc9fiumPhkRZGClRWXPLpDyxde43P7j8wpczYIoISM3YbJbFbvJUO7L8uWLJTHZYdhKFnNWZxmYD49hBBCiAd1N44LRlyufDsFff1WvZUEcVFEBgIHMZcRlOV+sjPMSEFcfEKTN+ZLsHyBTBp+BvwsEMTTr79hHrk8oGyI0rIvm9VdybB9zI4tWbr53ZEsZHj1rKzaxOfNp4gQQgix0ANEm7PxGVfZcuX2W/VSEkQfDeYdlQVkqFBuu7v1ypyFyo2FFCxfIAP3yz0HSpXhQhO8TIOXbFZXJcNIsiYTkhXtMDSSZY9x4EBSQgghSZRcnWkPEFUXDlxAbLlydwqKXOGCFJYEQ7nqpiS4/snXStFrhTIaeplGnlCv3yMiRcWgCZYdn/nFTv36WnuP6J6yQQe9Wejn66ZkaPdldZSssRTJqrXWmE8VIYSQocbIFS4QtlzhLh0XEluucKGxdwq25ar7kuCgnx2I0h+kqugsVVYMsmDZgXLiPdumtXgOMhhQiuG0eUqGIlm4SbAlS5rfbclCJhe7aH2SFU59b600ny5CCCFDiem5ksyVPUAUcmXPuGrLVXunoCtXeUuCgzrXCuU/NH5305heZJRFsOxAZgsiOn10MCfso2R4z6b9mSVDX18W3tth83tcsuwxDrZk2QNJw0xWY7n5lBFCCBkqwt2C7Z4rkSvMuOokV+rCkyZXOmtl5MotCWL8wqCBcteW6cO6wdsnEPMZZRQsO1BCfWz3gYEcBdGxZOiTLNP8nhjj4EiW7DBM9mQ1LzWfNkIIIUNBfeIdSq7CUQyesiAuHLZcyU5BW65wAcKFyG5mzyoJDtrQUEgAdszNZwmwU5RdsOzAzzJozfEYAeIrGeaTrHCMQ1yy2rOyvD1ZGOHAOVmEEDIkWENEZRSDryxoDxDFhQV38bjQ+OTKbmYXuRrUkiDKgLj42wM+ByWqJFgS2G2J1zYoYFOFPTMrIVnS/G5JloxxiEmWCnsgqa8nqz0na8t7zKePEEJIJcHZgiPNrb45V76yYEKuPGMYsuQKvS+DsksQTeu42PskYFCiioIlgRLsIDXFb9pyKCFZ7eb3tmSh/O1KFjK50UBSnclK9mTJnKxQslozyBqbTyEhhJBKccMLSxfVmpvlbEHfnCu/XIUXls5yFW9mxwiGQQDiMQj9VXmiyoIlgT4t9LwNAs9MHokky25+F8lC2VvGOIhkIYMrs7Li5UJLstRnKiFZPCCaEEIqCORqpLHBd3BztlyFmSvfANH4GAYjV6aZ/dHGIXMJWzjQ/4NBmb6L/KDGMAiWxE1PvTQQpUOMC7Gb30WysFFDxjj4ZmX5e7KSw0i1ZKnPHLLGi2vNrTqLTAghpCLUWmuwqymPXGG3oK8siAuMK1e4ELlyhazAQoLmdRym7LuoD3oMk2BJoGyLvriFZNf0cb0RQyQL72dXsvC+b0uWv/EdnyF8lmzJig6IjiSrMa5veAghhJScWutrWXKFsoYtVzKKwVcWxIXGlStckHBh+uCdLy3oTkGcnYcRAYO0K7DbGEbBQmDDAaR4ISfEYyipnGPoShbe77ZkSbnQlSx8hmzJkvENtmTpQaQjjQ2ULEIIKTMjzUttuZJBorZcydmCvjlXvrKgPUBU5Ap3/zhod6HA8S0LNRy0yBhWwZKAHOPsw4UCZ2LKGAeRLHtWlq8nK5Qs/8R3fMZsycJnEJ9FLVn15irzKSWEEFIq9Kyrhh4kasuVHiTqyFXsbMEMuZLMFS48Ile468d8oYUA5cCy9VllxbALlsRt43sWbIYWJr/fdP902PxuS5Z677s9WfiMtOdk5ZEsZxBpfeJC82klhBBSCnRTuzWOwStX21MPbs6SK8lc4QKECxHu+hcC7EQrcznQFxSsdqBsiJLvQoDRIqsf2huTLCkX2pKFz4grWb4DotMkS49v4M5CQggpEbXWGnccgz2lXcuVWvzRmJt2cHMkVyp8PVeQK9ztzzfo04GI+C7KZQ8KVjIWKptlS5aUC23JwmcDnxFbsuSAaFuyfNPeZXwDboDOqDc3sx+LEELKgNN3ZTe121PaIVcoZ6CskXZwszvnyi4LLkTmanJmVh8u7LsQVyEoWP5YqGwWJOtb619NSBY+E8jqJiRLfYZsyfJOe1efRS1Z6rMZNb2zH4sQQgac8IzBWN+VyBXuoCFXsmNQ5EoGiaYe3GzkChcXaWifb7mqctbKDgpWdixENsvuyYJk4bOQX7Li095lfIPb9M5+LEIIGWTsviv7AOexZ7Vc4Q46Xa7as646yRW2s88nuKBi+rfvglu1oGB1DvTdzfeROzhLE1lbfAYSkqU+K17JUp8tSBY+a/aMLPZjEUJI2ejYdxUfx+BOaYdcoXE3LlfmbEF1YVmIOVe4kFatkT0rKFj5Y+Ou+T2KCVnby++eikmWjG9wJcs37d1temc/FiGElIEu+q5i4xg8coUG3phcqUB5BEeKzCe4gPourFUOClZ3gSnw8zmcFNlbmfiOz4ZPsvBZCiUrPr4BNzbsxyKEkDLRQ9+VbxxDJFcqUP6w5Wo+j7/BBRMXTt8FtepBweo+UD6ez74sHKuDbK5PsvAZEsnSpcLYzkL2YxFCSHm44YWlOEC2t74rZxyDZ5Ao5GrTlvk7uHmY+q18QcHqLea7Lwulcnw22pIVZn1FstiPRQghZcfpu9JypcKd1J7Vd6XlSoXIFe7IRa7WPzF/fS57Dh8bqn4rX1Cw5hY4Mmm+QFZXS5b6rECy8NkJZ2QV2I9FCCFkARhpnHNmRt9VNExUy1V23xXkKuy7CuUKd+Z3P7zPXErmDwiG78I5LEHB6j1wZBIO/J5PkN2FZOEzI5KFz1Jh/Vi1xnLzaSeEEDIv6NJgY1xKg3Puu9Jy1d4xiC3pCzGlHQyzZFGweouFkCvBHkRadD+WLhVe2zzbfOoJIYT0nZGJFYnSYI99V25TOxp49+w9bi4fC8OwShYFq/tYSLkCmJEl4xvCfqy4ZPXSj4UbJikVLqo17zWfekIIIX1F3dHauwalNNjNvCu37woXBum7enzbYXPpWFiGUbIoWN3FQsuVgJ2Fuh/LSFYv/VhRqVD6sUwWS+8qHGmcYz79hBBC+katuVaXBpG9UnKFxdgtDeaZdzUofVdZDJtkUbDyxz3bpgdCroS592OFpUJ3VyFupLBTmANICSGkn9QnLowPFI3vGixr31UWwyRZFKx8MZffUz/puR/LUyqMdhWqz7pueB+ZGDGrACGEkEJBY3u9uQN3tG5je7RrUMlVuGvQLg2Wo+8qi2GRLApW5xhUuQK99GPZpUJ3V2G84b05y9lYhBDSD2qtr+FOVpcG1aJrN7a7uwZ9pcGsvqtHG/M3TLRXhkGyKFjZMchyJeTvx2qXCnFDJLsKMxveRxobzGpACCGkEMxxOO3SYLKxHXKFfg7ZNegrDbp9V7gQoKxRFqouWRSs9CiDXAnrn3ytYz9WlMVSIbsK7YZ3SJa34Z3H6BBCSIHUmhtl5pWvsd0dKCq7Bn2lQbvvCuUMlDX6xek+9CBXWbIoWP4ok1yBU6deD25fN53aj9XOYsV3FdoN77pUaLJYsYb3emOKDe+EEFIEKxqXSGM77mS7aWx3dw3afVdY/FHO6BeNo0Hw9b1vBMdfN/9HgVRVsihYyeiXXOFopn5y4Mip4ALrUGi3VGg3vOOGqKuG93pzlVkdCCGE9IRubG9MuTOv3Mb25Mwrt7E9WRq8Z9N+cykonpdPBMGnX34juHiKktVNULDi0S+52rjrNf34/T4gGr2NdhZLSoU6i6UCn9GoVNhFw/sSNLyPNt9lVglCCCFdU2tcHTW2m9Kg29ieNfNKy5WKWPZK3VEvu2tP30qDR5VMjb4SypUEJStfULDa0W+5Qpz3s8lg/+xJ8y/Fg1LhTfdPJ3YV4oYHn027VOhreHdnYzkT3teaVYIQQkhXJLJXz3ob26U0mGhsVwt4WmN7v6a1o+fqu/vjckXJyh8UrDDmQ64krnp8V3D8dB/emIZoV6H67EmpEJ/JRMO7ujHyNbxLqdDb8M4sFiGE9IAne+VvbJ/sqrEdd9T94icH/XIlQcnKDgrWZPCTnf0pXfvkSuKbW9Sbs4/c99hMrFToa3iXUmGy4d2UCpnFIoSQAkjpvfI1tuvSoNPY7i0NqsAiPz1zwiz7xYKmdp9UuUHJSo9hFyxIUD/IkiuJ9Tv615OIcjzK8u1SYbLhPSwVZje8J7JY6MW6tnm2WTUIIYR0pNa4GiWAPNkrX2M77ox9je3rNs+YJb9Y7Kb2PEHJ8scwC9ZCypVEa2//mt6f2n44ymLZpcJuGt69vVjcUUgIITlJy16Z3qtE9kotyInGdnVnHMteqTtnzLzqx1mD6Ltym9rzBCUrGcMqWIMgVwg0vU8f7d/oEszGwmfRLhWmNbznzWLpI3SYxSKEkBw4c6/yZK8gVzp7pRbqtMb2Zyb7c3e+vkPfVVZQsuIxjII1KHIlcdNTLwWnX+/DhFwFyvP4LEqpMLXh3ZvFythRyCwWIYR0ZnGtMZ6WvbJ3DmZlr9zG9n4dh7P7hF+cuglKVjuGTbD6JVdz/dv3q9Ee2MfopDW85+nFShwEzSwWIYRkUJ+40M1e2XOvMnuv1AIt2Su7sf2Dd77Ul8b2XkuDvqBkhTFMgjWociXRr0nvmI2Fcn03WSz7CB1msQghpBdqjXEslp2yV1h082SvcKeMO+Z+MJfSoC8oWXMTLPQOYaaT73EHLQZdrhD4XfarVIg5dHPJYvmmu+ssFs8oJIQQD3PJXpmdg77sVT8mthdRGvTFsErWyBMvBvdsmy7k6BZIAbJZj+0+oH/u28b3eJ9zoaIMciWx7vl95tGLpZsslu8g6EQWS60Z+ozCWmO5WU0IIYREmOwVUv5YNDOzV765V57eq36cN1hkadAXVZcsDLXEzKWnXj6kRWi+QIbrl3sO6CZu3+uajyiTXEn062/ky2IldxT6s1hYE7xZrHprilksQgixqTXPy8peYVHF4tope4VFWrJXWLz70XvVaVp7EVElybrk0R36eft9sHA3HDx+SssWZM/3mvsREMp+0O+/6Wd+sbMvR+kUlcXSIxuYxSKEkBRqzXvd7BUWz7lkr+5+uPjyxsyp7gaKziXKLFmDKFVpHD15WstPP2Vry3R/zr6cL2Hu15T3brNYMrIhM4tVa241qwohhAw5Y0+fhQZVLI5YJNOzV+FohqzslT33qh/Zq7+YmR+5kiibZN3deqUUUpUGyoj4GXw/W69RdrlCYAApsn5Fk5XFcqe7+7JYWCPcLBYy4YtWbHmPWV0IIWSIqU183j7UWbJXKAFgEe2YvVIxH9krHIfjCtB8RBkkC1LSzwng801RolUFuZLA76MfPNo4lCuLhV3D3iyWWiuwZmDXMW7QOLKBEEKEWnNj1qHOyezVjgXJXkF0fAI0HzGokoXv3z970jxa9ZiLaFVJriT6MRsLu3wvuPOlRBZLj2xQ4ctiYTcxdhUjw40sFjLeyGKx2Z0QQoSRbW87s8NoBpQEsKhicfVlr7AYR6MZ+pS9+mt1XfGJz3zGIEkWvqcfJaNBBaLVzbiHKsoVAjsw+4FvurudxdKC5clioT/THtkQb3ZvnmdWGUIIGUJGGjdKeTCruR2LKhbXhche9XssQzex0JIFyahyxqoTmK2FfiTf70aiqnIl0Y+fL08WSw6Bxi7i9JENYZkQGXFsnDGrDCGEDB+L680d7fLgs3qRxGKZNpoBd7JasNSiK4LV7+zV/3fELzsLFQshWZAKyAUJtGCmZbOqLlcIjG3ox4T3RBZLfbaxOxhZLHtkg3t8jpQJo2Z3KRNisvvY02eZpYYQQoaIkcY57uwrLJJYLNHcjsVTyoOpoxmc7NXkVLE9IsheXTMg2Ss75lOyMGV9mLNWabjZrGGQKwnMECsaZLHwGcYMO9ww4bMdZbGsZnd3ZAMy3Xazu5xPGJYJJ64wqw0hhAwRtdaatMntyF7Z5cG05vYoe6UC272LZtCyV3bMh2T9ZOf+vp1HVwUkmzVMcoXoVxZr9Y/3JsqE7siGdpkwbHbHWhE1u6s1RGZiITO+uN7caFYbQggZEm54YeniWnNGZl/p8mDGuYOSvcIiaze326MZ+nGo8y2vDl72yo5+SRbEqh87xkh+BlWuJPqRxXpm8khqs3tWmdA32R1ri56JNbLtbWbVIYSQIWBF4xIsfjL7SsqDMvsKiyayV1F58Ha3PNj/5vZB2DmYJ/olWWThGHS5QvQji4XBo6nN7hllwqjZ3ZQJ0eyOzLieiTXSGDOrDiGEDAEjjQ1Y/MLslb882Glyu93cftP902aJLg6Ii09oBjEoWdUAwlL0JPl+Rj9Ko/c9NqNvmPDZRoZaN7urz7ybxcLYFikTZs7EqrV4dA4hZEi4tnl2p9lXWDRTZ19Z5w5K9grToItkoaa2zyUoWeUGcrW68bJXZAY1+jEXa9f08dQyIW6wtGDdHs7EwhrRbnbPOACaR+cQQoaCWuPq9KNxkrOvsJhK9gqLLLJXUh5EczsWY+xAKpL5PnOwqKBklZMyypVEP86e9J1PqMuEKsIyYdjsjjXCNxNLyoTIYvHoHELI8FBrrrWPxpHZV1IelKNxZPZVVB5Ui6uvPIidR0Xy6km/vJQlKFnlosxyhehHFuun4wetLJYpE3pmYsUOgPaUCdszsVrjZvUhhJDqYu8eTJQHb80x+0ottnZze3PnUbMsF8P6g+XMXtlBySoHZZcriRcPFrvjdN/Bk/qzjQy1lAlxYyVlQml29x2dgxs1ZMSRxZIyIXcTEkKqz2jzXdFwUbX4QbDSyoNh9sp/NI7OXqn44J0v6Z1HRTKIg0V7CUrWYFMVuUJg12PR3L5uOleZMO3onORuwuZlZhUihJAKImcPpgwXdcuDyF5JedB3sPNfPjZjluNieOG4X1bKGpSswWSh5eq2v/yFjt/5yTbvv3cbmGiPn6lIHt922NPsnl4mTOwm1ILVHjqKwcZmFSKEkApSa250zx7savegWmTt8iB2HBXJugPVyF7ZQckaLBZCrq5YvyV4aNUPgumLPxUc+PULYvHCZ6/R/+b7vm6itbfYZvfoAGj1WU9ksUyZ0N1NKENHsaZEuwmlD6ve3GFWIUIIqRjh9PbZ3P1XavGEYLm7B6U8uOyuPWYpLgacO/jpl6snWAhK1mAw33L1n//rw8GWFXckpMoXz141Fnz5R+Pex8kT+LmK5lvrX829m5B9WISQ4cU+3LnH/iu7PHj3w/vMMlwMz8765aQKAcGCQJKFp9+CJdmqqWWXe0UqK/A9cykbHj1Z7LiUTVsOJXcTqrUgWSY0ZxOyD4sQMpT02H+ly4Mq3OGiOLesSNbsr2b2Clk5jJ4ggwEk5JJHd3gFZS7RTbYqK35+63/yPn6eeGx3secT7tmbPnQ0Vx/WmNOHVWcfFiGkisyp/6o9XFQE68CRU2YZnjtHX69uefDRYofckwLAETM+Qek25pKtygo0wPuer1OMPPGi+QmLA60A3jJhT31YrSmzGhFCSEWw+q/keBwsflgEsw53Tuu/uvrPi+33ePqIX07KHiwNDi5zKRXe+RcbC8lWpcVcmt6njxa78eTuR/YV24c12nyXWZUIIaQCFNx/VfR4hrIejZMVLA0ONt2WCi/7cTNY952/CnZ/+kteKSoymtd81fsa8sTGXa+Zn7AYEuMa1FrgH9eQsw+r1lhuViVCCKkAA95/dWVFhovawdLg4JOnVLjq3keDJ8bu9IpQv2L/BR/1vpY8cdt4sbt7p2dO5OrDQuYbGXDfsTnxeVjNtWZVIoSQCjDA/Ve7T/gFpczB0mB58JUK5zNb5Yvnr6wlXlM3cfx0sTNBCu3DqrVmzKpECCElp5v+K7VIYrHMKg8W3X+FTI9PUsocf13s0XCkj6BnScRkIbJVvpjLTkJE0UNH2YdFCCE+nPMHsdhh0cPiNwj9V9+t2HgGZK9IeXjj6NHgyR+sX7BslS9+8J/Xe8UpbxR9NmHhfVich0UIqQQrGpfo/islWEX0XzV3HjXL7tzBdPOqjWdg9qocnJ6aCmbvf8ArOAsZKA+e/8h2rzjljase32V+ymLYd/Ck/uxjB3FPfVhasGLnEq40qxMhhJSYkcYY7hpx94i7SC1Ypv9KC5ZaDHHXmbf/6tiJ4qZFQ0Z8klLWYPZqsHnj+PHgxK/Gg0PXj3nlZqEDze1zOS7HjqLHNaA1oNs+LLvRHa0JbHQnhFSLWvPerAb32PmDRrCwaEKwsIhG86/U4nrT/dNmuS2Gnxxk9or0nyhbdfEyr9gMQmBYKXrAfLLUSxQ91f2eTfszBQutBck+rO16FIyn0X3crE6EEFJeFtca4yJYWOTcA567aXAv+vxBZHx8olLGYPZqsBj0bJUEslYYLDrXsqAbRR/+/GjDfy5h3kZ3LVg3hIK1pNacNcsTIYSUF98OwnDA6PauG9x/On7QLLfFUKX+K2avBoMyZKsQL3z2Gt3MPpfDnbMCQ1SLBL2XnRrdsYaEje7Pxxvd1ZqD1gT0gEY7CesT7zBLFCGElBC1iPkmuKfvIAwb3HFXirtTCFa/GtxnTvlFpYxxzSvMXi0op0+XJluFEQw3/9UvvVJUdGBafVHkHTiKXs60nYRasK7fGmDTzaJa8zyzShFCSAlRixgEq5sdhO0Gd9lB2G5wx+n6RfHsrF9WyhjrD1KwFoLX988Ex37034ODl37WKzSDEv3OVqXFc/uLm4d16tTrwX9QawB2EiKjDcHCDZgrWLKTEJtnkjsJt+lWBR6ZQwgpP7XG1YkjctRiFxeshdlBuPFQdcqDmEZfVV6Zntbx/PPqgv3cc9F/nz5d3HuhK5CtmpgIDn9jlVdmBiXmO1vli6LPJcy1k9AIlh7VcGvGkTkjzdVmlSKEkBKiFjHcLYY7CLelHpFj7yAUwcLiGe0gVHH53cokCqQqBzxXrTy4Z89U8POfbw6+e9d/CW674xvB7V//E2/g3+6888+Cn/3PR4MXd+/uu3CVJVuFOVYLka3yxd2tV8xvrxhWP7S3405CbJaRRvfMI3PqzY1mlSKEkBJSa26OjWhwdhDGRjR0aHC/fV2xIxpuebUaglWF8uCJEyeCzY//MviPd94ZfO22O4KVt389CoiUL+yvwfd840+/GWz62c+CI0cKPKalJNmq6Ys/FfzP275X2AyroqLogaPrn3xNZ7KxJqA3E2tEnp2E3lEN9daUWaUIIaR8LK43prCYyYgGLHIQLPsMQiyGuOvstINw3ebijsjBBHefrJQxylweRNbpmWe2BKu++R+DW766Mrj1a7cFX115uxYmO2yZEqGyA9+D78VjQL5+sXmzlrZeKUu26tmrxoLvr/lx4SMWiowiD372Hpmj1gpkvLF2IAMugoXeTgiWNLpj7UGLQuxMwrGnzzJLFSGElAi1eJ0pOwgtwQpHNOTfQQjBwqKKOThF8bK69vpkpWxR5vLg/pmZYPV/uisYu/mW4KZbbg1uvvWrWpBs0ZLwCZUEvlbk6uZbv6Ye66vqMW8Nvv6nq4Jdu7rLoJzcui048u0/88rMoMSgZqvSYnJm1vx2587k1LG4YKn1IfeZhEawYjsJeegzIaSUrNjyHtlB6B7yjEUPgoW7TBEsLI4QLN3grsLdQfjc7uIW6sZRv7CULTCJvoxMTk5qobr+xrHghrGbgxtvukVLEeQI/z9EyZYtX8i/42vxPSJWeCw85vU33hRcd8ONwfjTT5tn9fP6wYPB8YcfCQ5+4Sqv0AxKlCFb5Ytf7iluovuBI6einYRtwfKPapCdhFhr0JKAzTWykzA69HlFY5lZrQghpESMNC9N7CC0BKu9g3DSs4NQCZZaPG3BwoGvRbH5sF9YyhZlHC46Pj4e1EavC+rX3RCMXn+jkqAxLUNx0YrLlj9CqcLXJsVqTD82ngPPtWHDjxNN8MhWHb3rv3hlZlACx9c88vX/WppslS9+snO/+Y0XwwV3vpRodMeagdYCLVjuTkIjWHonoRYseydhY8ysVoQQUiJGJlZ0OuQZi2CnEQ24W8VdK+bgFEVVziA8WtyvZF7YsmVL8Mcj9WBFbdRI1vVKhG7Qmaa4aIlshcLlj1v017hihcfCY+Kx8Rwj9VH9nP9j48bSZKsgfhBATEP3SUuZ4p5txW5OwXmkeXYSYm1xdxImDn2uc1QDIaSMqLvDbkc0YJGEYLkN7ph/UyR/+Vr5Bats/VdTU1PBNdeuCK5dMaKEp6Ykq67lp53NsjNaoWyJcKVF+DWQqjBjFYpVmLXCY+M58Fx4Tjz3Lz55mVdoBiEgfZA/SKCA8/x80lKm+OYW9WYtkLsf2acz2lmCldxJGB/VgDUJvaE4iN6sVoQQUiJqrTVtwXo2IVjuiAYRLN8OQty1Fsl395dfsDDHqywcPnw4uOnmW4Ivf+VaJTp/HHzlj0W0wmzWSP26KKMVl61QuPwBoQoD39POWF2nHxOP3ZarP9bP/UfXfCV47qKPeQVnoUKyVT5QXvNJS5mi6FEN9z02EwlW/lEN29NGNXAWFiGkhKi7w1wzsNRi2GkG1rfWv2qW12IYfaX8gvVocZsq+84Da9cGV//Rl4PlX77GI1k1S7TCjFYYkK1QuPwBoQqlKhQrZKziWSs8h8gVnhuv4eYvXRXsf9+HvLIzX+HLVvnAUTM+aSlbFAnGtbR3Eu6KRjX0NAur1tpqVitCCCkPmJQsgoVFzRUsLH4iWJ1mYBUtWFdWQLDK0uD+4osvBl9UUvOlq5dHkoVMkitaIlsQJCkfhhFmpZIR/rsrVa5Y4blErvAa/vCqq4OfX/JJr/j0O2Z/8MPg5Pa/Nr+Zzhw8fsorLGWLIg993rTlkCVYyVlYaYIls7C0YN3AYaOEkBKzuNbcikVMBAuLGwQL6Xoselj8sAh2EiwspigLFMXpN/zCUrYoS4P7n/3Z6uALX/zDSLKuWv5HXtFCj5QrW5LdCjNcYch/y7/HpcovVnhOPDdeA17L9Z/7fPDq+z/slaCi49BXRoLjP/9F8MbRo+Y30h1VaHTfc7i4uwGvYJlZWFhD0GoAwQpnYaUPG8XapIeNEkJI2Vhcb+7AIpYcMhoXLCyG9pBRESx7yGiRgnVI3Uz7hKVMUZYG98kdO4LPXXFl8PkrvxBcqcTmC3/4JZ1BkmyWK1pf/gpEKwwIk4RIlC1TEm2pSooVQrJWeG68hiu+8EX9mh7++Ce8QlRUIFt1ascL5jfRO1VodEepsyie2u5Mc1frRPqw0ee9w0Zj09yvbZ5tlixCCCkHc5niHg4Z3RXNwMIZZKR8rF23Lvjs5Z8LLv/8FVqyIDeSzRLRsjNaIlt/dA1kS0LkyY3w3/G1IlU+sZKs1ZXqufEa8Fo++7nPBysvLX5H4VyzVaQzz0we0WtC52GjHaa5q7VJT3Mf2fY2s2QRQkg56EWwsEj6prijLEDKBQZ7IrP0B5/5bCRZUTYLovWHX/KKloQIk0QoXm2RskO+R0qBkVgha6WeS7JWWq7Ua8FruuwPPhPsOu+3vaLUbRSVrSKdwYkOeae5U7AIIZWkSMEq8hxCMj/s3Lkz+PRlv69F5veV0Hzms5frzFFCtEzp0JYtES4JW7xEpCTk622pkoxVTKzUc+M14LXgNeG1/Y+LPuoVpjxx6Pqx4MSvxoM3jh83PzGZD3ZNH+9dsG7ieYSEkAoQCZZazESwsMiJYHVzDiHKAqRc4Hia3/v0pcGnL70suPT3/0BLDTJHPtGCCNmyJcIl0uUL+Xf5eluq8JgxsbKyVngteE14bXd97BKvPKXGxcuC2fsfCE5PTZmfksw3tmChR7OjYKkbuUzBGmmcY5YsQggpBz0LFs4hpGCVnnvv/WHwu5/8veCTn/p08CmIFrJZrmihdOiRLREuHRAniJcJ+W8d5mtdqcJj4rHxHCJWeG68BrwWvCa8ttFL8jW6M1s1ONgHPlOwCCHDx8i2t2GHjggWFrW5CNbkVAlPNR5yvv2d7wTLPvG7wScgWb/3qeD3IFqXXhYTLZTr/kBJEDJMtmyJcElAnuyw/02+PpIqFXhMKQVGYoWslXoNeC2Qq2W/+8ngso8v8wqVDmarBpJuBAtz9kSwMH9PBAtHd1GwCCHlJEOwsNiJYGGnjwgWFsdIsNSiaQsWygKkXFx//Q3Bxy9ZFlyy7BNaZnQ2yxEtKR3+vsiWyWxBkkS6UOLzhvkaHSZThcfAY+ExdSnQI1afUK/lEiV+eG0f+/glwavvi4vV4a/exmzVAHPsxOlQsMyBz1grMNaFgkUIGQ4KFqw9e3mxKxsf+ejHgo9+7ONaYj6uJAtSA7kR0UKZDn1QkWxZmS1buiQgUJFESZiv1aG+F48RSZUpBSbESr0WvCa8NrzG3e//UHDw0s8Gx37034PX9xc3b430j24FC2efimDhTFQRLJyVSsEihJQLZrCGni9fc01w8e98NPgdW7SQ0VKSg4wWSod2VkvLlgiXJV06IE92mP8fX6O/VgW+F48Ry1apwHO5YoXXhNd20cUfCV578skgOF3cUS6kv5w69XouwcIh8hQsQkj1oGANPXfccUdw4UUXBxd95Hf8ooXSoclq2bIVZbckRJzcMP8uWSpbqvCYeGw8h5QCRaw+ArFSrwmv7bcvvMi8WlIWoh4slggJIUPJDS8szSNY3EVYXb73ve8FH/7tC7XE2KKFspxPtnRmS7JblnRlRSRTIlS2VDlipTNWlljhtY3UaubVkrLga3KnYBFChgqOaRhuHnjggeBDv/VbwW99+LfjonXxR4KLleggkySiJbIFKYIcoZyn+7YkRJ4sidIiJeEIlUgVngPPhee0xQqvCa9t1apvmldLygL6MV3B6nZMAwWLEFJqihSsx7cdNssrKQsTExPB+R+8IPjgBR9KFS2d1XIyW7Z0ReKVErZMaaFCiFRliBVeE17bI488Yl4tKQuFDxpdseU9ZskihJByUORROTyLsHwcP348+MBvnhecd/75MdH60G99OCFbtnDFpMsOS6Ak8DX6a833iVAlperDMbHCa8Jre/HFF82rJWUBM/FEsLBGzFmwRngWISGkZBQpWD8dP2iWV1Im7rzzzuA3PvABLTO/ed75Smw+6JUtW7hs6ZLQ8mWF++/yfXiMdKn6oH4NeC2/8YHfDL74xS+aV0nKBNoFuhIsHvZMCKkai+utqW4F61/GBGtXJFj3PVbcfKLZ00HwyGtvlD72njQ/0ADzxBNPBL/+vvcF7/+N3zCi9ZtKctpZLZGtCz4E2QqFy5YuEa+0kK+R78Nj4LFEqkKxOl8/J54brwGvBa/p/vvvN6+SlAkIFtaEzoI1ScEihFSTxfXmDr9gbe8oWNgVBMFCj0XRgnXyjSD43t7yx8RR9YMMOKdPnw6uuPLK4Nxf/3UtNe97//uV4HxAZ5BEtsLMVly4JCBLEqGAtf8bYX9tW6jCTFUoVWG2Cs+J58ZrwGs559xzg1dffdW8SlIm0C6ANQE3X23B2pkiWM9nChZ2OmPHs1myCCGkHCjB2gjB+puWYP29m55LEawdoWDdsTP410aw3m0J1uqHlFEUyF/sfcMrLWWKTQcHX7AAslgQGom4bIWZLRGusJTYlq52fNAT4b/ZMhVmqdqZKjyHiJX9Gh588EHz6kjZyCNYWFNEsLDWiGBhDYJgYeONFqxac9YsV4QQUiJqzbVvHm0L1t8eezYSrH9oBAtzav5pB8HCQMFvrS822/Cj/eUXrP+mfoYygCwWprrbgiMhsmULVxiQrlC8sgMiJREXKjy2ZKvsuPCii4KjR4+aV0fKxvonX4sLllorkPWGYGENEcHCzZsIFtoSRLCwFkGwcPOHLLtZrQghpETUWmtEsP7WDW3BwsA/CNY/tgTrn3UQrNsfnDbLazEg++OTlrLF8dfNDzTg7NixIyE6vhApEumyQ+RJBMqONJnyxaZNm8yrImUE7QJtwdoVCRbaC7CGoN1ABAs3cSJYaE+IBEutSVqwaq1xs1oRQkiJqLVW4qyvSLDUwhYJllrwIsFa2Vmwrv7zl83yWgy/OlINwZoq0QlCEBuf8MxnfP/73zevhpSVezbtjwkW1orOgrXdL1j11kazWhFCSIkYaYy1BWtbR8FCah+ChVS/K1gX3PmSWV6LoXXULyxli6eVKJYJCI5PfOYjRq+7TpcrSblBNhuChbUBawTWCtyUtQVrh1ewsPaIYGFNgmAtqjXvNasVIYSUiJHmZRAsDPQTwcKgPxEsDACEYGFeDXb9QLDQpArBwrZrNK9qwVKBuTc4g6wodh7zC0vZAr1kZQKC8/VvfMMrQP0M9IAdPMhZalVg2V17ooOeY4Klbs5EsNB2IIKFdgQRLLQpiGChfWFRvbnarFaEEFIias3zMGcGgoVt0di9A8FCsyl29WD7NObUZAkWmlhRCsAdKyY4FwVmSPmEpYyBuV5lApL1gx/8wCtC/QgIHZvaq8ER9WbXQ0ZTBAtrCLLhyIrj5g1ZctzM4aZOBAvtCpFg1RrLzWpFCCEl4trm2Zgzg+3Q2LWjBWvMFazn9XZqpPTjgtXf8wgPKynxyUoZA9m4MuKOb+hHYBwDy4LVoZuDniFYyJKLYOHmDll0ZNMhWMiuL6pPXGRWK0IIKReLa60Z9DrYBz7nneaOO1N7mju2ZxfF628Ewff3VaPR/dFD5SoT2uAswG9/+9teOZpLoCS4fft28yykKjy1/bDV4J41ZNRzTI4SrGjIqJxDWJ94h1mqCCGkXGAbtBYsdccYF6zuho2iJFD0sNH1r1VDsBBlGdeQBmQITeg+WeomMDUemTFSTXAmaUyw1BohgoW1A4KFtcQ3ZFSmuHPIKCGkGtSa9/qGjepGdyNYeiehWhQ5qqH3wK7IKoCMFsp6ECWfQPniU5/6lD5XEJLGcmC1ufuRfZZg5R3R4MzAUoLFGViEkPIzMjESGzaqFrheRzWg9+LUqeJSNVXZSYgoy1T3bsBZgb/61a/0/KyHH35YlxIRGzZs0P8fMlVTU1Pmq8kwUPvhK13tIJQRDf4ho821ZpUihJASUp+4yB7VIDsJIVi60V0tgnl2EqKpFXeu0zMnzFI7dw6c8stKWaNMQ0cJ6QXMw8sSLL2DUK0j0Q5CJVjpOwhbK80qRQghJWS0+S49qkHdMUajGtSdZHJUw6RHsHYmRjU8t3vWLLXFUJVGd0SZm90J6cS+gydjIxqwNkCwsFZAsKTBPXVEg1p7RLD0DsIVjWVmlSKEkBJywwtL3VENSNWLYCGFj2ZUaXTHIok7US1YKtxRDY82DpnlthgeqVCjO6Lsze6EpIGbK6wByGa3dxD6RzToHYRKsLDGQLBkByGy6Mima8FSN39mlSKEkHKyuNba6t9JmH9UA+5YsbjiHLIiwVEzPlEpa1Sl2Z0QF8zBwxrQeURDuIMwNqJBrTkQLD2iQa1FekTD2NNnmSWKEEJKSq25FoIlOwkhWEjZo/lUdhJCsNA70WlUA84hK5Ldx/2iUtaoYrM7IWDd5hlLsHaFIxrUGgHBChvc2zsIZUQDbuIgWFhzIFiyg3BJvTVlVidCCCkx9eaq2E5CZ1SDu5MwS7DQ5FrkTsIqTXSXYLM7qSI3/1Vvhzx7dxDWWxvM6kQIISWmNnEFeh5CwQoPfbZHNcihz1qw1AIZb3RP7iTcNV2sQTwwU60yIbJYmFRPSFU4diL7DEIRLNlBCMFKO+QZgoWbPrM6EUJIiVmx5T1y6LM9qiHaSagWw/RRDcmdhJjmXCRVGjgqMXGUhkWqwzOTR/Rnv1ODOw95JoQMF9ahz75RDe5Owk6N7igVFMkrJ/ySUubA+AmUPwmpAvc9ZvdfZTW4+3cQyiHP0Q7Ckca5ZnUihJByk/dMwjyN7igVoGRQFFU6+NmOTQeZxSLVYPk9L2vBwhrQ6YictDMIZQfhknpzFuNjzNJECCElJ6vRXS2EsUZ3tVB26sMqeuAohnT6JKXsgV2ShJSZA0dO5e6/ytngvtGsSoQQUgHMkTl2o3usD6vTRHddJmz3Ya1/8jWz/BZDlc4ltIMN76TsFNl/FTa4N8bMqkQIIRVg7Omzso7MyerD8pUJi+7DwgR0n6BUITBMlZCykui/UmtBL/1XECz2XxFCKskg92GBhw5Us0yI/jIcbE1IGWH/FSGEdGLA+7BwzIxPUKoQP9r/RnCSiSxSMth/RQgheTB9WKnzsBa4D6uKU93twMHW7MciZaLw+VfsvyKEVJKxp8+SeVg4EwyChTtMCFang5/now8LVLVMKIGhqoSUhfz9VygPTsYPeGb/FSFkmMjqw5KDn3WZUC2anc4lROkAJYQiqepuQjuePWp+WEIGGJw5+om79iTKg+y/IoQQHwX1YUmZcNOWQ2Y5LgaU0DDawCcmVQoeCE0GHfRYsv+KEELyMpc+LBVhH1aYxYJgYYdR0WCsgU9KqhTYWThz0vzAhAwgdz+yL14eVJ979l8RQkgaXfdhdS4T7pouNh1T9WZ3CWTqZnleIRlAjqg35gXfeSnKXtnjGSBYWBM69V9hbcFNHM8fJIQMDb4+LNxxJvqwcpYJ0QhbNNhx55OSqsUTh9n0TgaPx7cdDsuD6jOeVR6U/ispD7L/ihAy3Lh9WGohlD4sXSZUi6VbJtRZLAiWCjeLteyuPbohtkhwhp9PSKoU65VEcjYWGURuf3DaUx5M7h6MlQdN/xXWEvZfEUKGkxVb3quPzbk+eWxO3jIhFlwtWCqwELd2Frs1rurN7pQrMqjsO3gyvbldhZQHsTa45UHcpLXHM7T7rxbXJq4wqw8hhFSbxbXWVl+ZEAsk7kSzdxMmh46ufkhZQ8FUtdmdckUGmZ+OH9SfaXu4KAQLn/3s3YNheRBrSaI8OPb0WWbpIYSQarO4PjHSLhNu03ecyd2Ez+s71DCLlT10FHe8aIwtEhwAjd12Pkkpa1CuyKBz+Zopqzy4K/Nw57Tdg7HyYK11r1l2CCFkCLi2ebYuEyKLZcqEuPMMh47Gy4Tu0FEstFImtLNYjzaKnYkFqpTFolyRQWdy6ljH8qA7XDRt92A0nqHWPN+sOoQQMhwsrrc22GVCd+gomt1xh4o71fQy4a5IsPpxdA6EpAq9WJQrUgYSR+Ooz7fMvsLNlc5emfIg1oZ2edAZLirlwdHWlFluCCFkiFjRWIb5NFImtJvdcUeKhRN3qO1md1MmtJrd3TLh9MwJs1QXx/ZZv7SUJShXpAxgJ7A7+0qXB9Vn3Vce1M3tKeVBrCmmPLjSrDaEEDJE3PDC0iW15qyUCaXZ3Xs2IbJY6s41nsVKlgnXP/maWa6Lo8w7CilXpCxEs6985UGruV3Kg5K9isqDprk9Nlx0tPlus9oQQsiQUW+twZ1mmMWKlwl1s7taRH0zsbRgqcACLEfnYGG+4M6XCm92B2XMYlGuSFlA9ire3J7zaJyU8qDJXo2bVYYQQoaQkca5cjahOxNLyoTS7B6WCf0zsbAgy0wsZrEoV6RcpGWvcBOVZ/aVLg/q7JU9+6qx3KwyhBAynCypN3fYze64E8WCKWXCfDOxmMWSoFyRMtEpe2WXB9NmX8WOxlE3a3r21bXNt5olhhBChpR6Y8w9OgfbraMyoZ6JFZYJOza79zmL9cDMYGexKFekbDwzeSQ1e+WWB2Ozr5RgSfYqKg9Gze3NtWZ1IYSQIWZk29tkJpaUCbFg4s7Unomls1hqkU02u3uyWN/pTxbrlRN+sRmEoFyRMoLxKm72CoKV1tzum30Vlget2Vf1iYvM6kIIIcPNGfXmZrtM6JuJNQhZLPCLQ4OXxaJckTLy3O7Z3NmrrOZ23JRFs6/qrRnsUDZLCyGEDDm1iSvSZmKlTXZPy2LJyIZ+ZbFwhM5f7B0cyaJckbIyl+xV1NyubsakuV2XB+utVWZVIYQQomdi1VtTvmb3jlkstRjPdxZrckAa3ilXpKy42SvcHHXKXrWb2+PZK2luX8rmdkIISYJt1fYB0HYWyx3ZkJrFUos07oQli4XdSdil1A8eOrCwWSzKFSkz+bJX/nMH7exVvLmdBzsTQkgSk8VyJ7unZbFkZENWFgt3yJix0w8OnAqC7+9bGMmiXJEy48te6WNx1E1S5+xV2NyeyF5xcjshhKTjzWIpwcqfxUoen4MsVj96scDE0fkXLMoVKTuSvcJNUKfsVepgUSd7dSZHMxBCSAY6i5U8n9DNYuGOFjNxOmax1B0y7pTXbZ4xS3uxYDbWj+ZxwjvlipSdp7bHp7b3kr1yB4sye0UIIXmoN1f5Bo9mZbG0YKk737Qs1nu+uTuYnjlhlvhiOXx6fkqFlCtSdpBJ/sRde6LeKwiWjGbIzF6pzzturpi9IoSQuXBt8+zMLJYSLDk+J1cWy0gWyhL9YucxvxQVFZQrUgXue2wmX/ZK3TTh5ikreyWDRZm9IoSQbqg3V+HONE8WKxzZ4GaxktPd+9nwDp443J8sFuWKVIE9e0/oTLJkr3L3XnXIXi2ptzaYVYMQQkhHUrJYmH3jHgKdlcVyS4UoT/Sr4R39WJAhnyT1GpQrUgUwKsVubLdLg4m5VyZ7hZunTtkrtBIs5rE4hBDSHYvrrdxZLO+OQiNZdsM7FniUKfoF3K2oKe+UK1IVkDlOlAZVoF8Sn9V29iqc2p6WvcJNlp29WlxrjZvlghBCSG6ubb7VzmLhztXNYtlzscJSocliZTS8Y6HfNX3cLP3FM6Ue2idM3QTlilQFZIxxbFVqaVAFPrM6e6U+w512DjJ7RQghBbC41lybJ4uFBRkLs5QKkcXq1PDerwnv4OkjvWexKFekSqx5ZF8se4XPYlpjO26SkJH2TW2PsldKsHDTxewVIYTMhdHmu3UW6/qMuVhqIcaC7Da8R6XClIb3RxuHzCWgeNCPtelg95JFuSJVYnLqWJeN7WH2Cv2VyFDLmYPMXhFCSB+I92LFzyhE+SCz4V0t4GkN7yhb9KvhHUCUIEw+kfIF5YpUCWSIaz98RX/WOja2q88sMtB2YzuyV7o0qG6mPDsHN5rlgRBCSM9guvuoOaNQLbBYaLHgSharp4Z3I1nfWv+quRz0BwjTAzOdJYtyRarG+idfSza2Q65U4DPZTWM7bqqiqe315uyi+sQ7zepACCFkLqAcgLIAFlgstImGd5QK1cKct+HdLhVu2tK/UiFAkixLsihXpGrgMOfM0qAKfDYleyWlQV9jO/ou0X+JDLbeOVhvjZllgRBCSBFgoGBawzsW5LSGdy1ZakG3G97tUiEuBP3cVQgOnPKPb6Bckapx4Mip6DicbmZe+Rrbo9IgslcoDY42dyy68YU3myWBEEJIIYxse3vWETpYmH0N77FS4Tf8pcLL10z1tR8LzJyMn1lIuSJVA31Xtz84nSwNqkAG2d/YPultbJfSoN3Yfkateb5ZDQghhBQJygNYaP0N7/4J7+mlwviuwn73Y4FXToSSRbkiVUT6rrJKg25ju10ajDW2q8+23djOA50JIaSf3PDC0sW11lYsuG7DOxZmb8O7Csli2aVC6cfChWC++rEABpFSrkjVcPuuskqD0tgelQaRvbJKg8he4bMda2y/tvlWswoQQgjpC7Xm+ThB39fwjgXa3/CevqtwvvuxCKkaaX1X9kDRZGmw08R2q7G91lhuPv2EEEL6yeJa6968De9YyEPJckuFC9ePRUhV6Kbvyi4NIntllwZTG9vrrXE2thNCyHyhzylszWQ1vNuSldhVOAD9WIRUga76rtxdg+rziYyz29iOzLQ0ti9aseW95lNPCCFkPkDZwG14T5QKrV2Fg9iPRUiZ6aXvSgaKtncNxhvbkZG2JravMR93Qggh8wkOfJWG96hUqCQrLBWGuwrn0o/V2nnUXEoIITbTMyfm3HcluwYTpcHrMfOqNcXGdkIIWSjqE+/EDiO7VIiFWvqx3FJht/1YOK8QB9YSQtpIU3tRfVe+0uDieouHORNCyEJyxkjzMizI7q7CIvqxRLJwt04ICeVq+T0vR3JVVN+VDBTVuwbrrVXm400IIWQhQa9Ge1dhMf1YtmThbn3fwZPmEkPIcHLsxOng5r9q7xgUuZpr35UuDUZ9V83N3DVICCGDglqQl4y2B5D22o+VJVm4a8fdOyHDiD2OAZ+HhFwV0He1tN6awZFY5lNNCCFkIJhjP5bb9O5KFi4stR++ou/iCRkmIFfffWhvTK7wuUiTK10aVJ8t9l0RQkhF6LUfK9H07kgWLigiWSiR4IJDyLBw32MzXrny7RiM5EoF+64IIaRCdN2Pldb0biQLFxJXsnA3T8kiwwAGifpmXYVy5dkxaPquQrli3xUhhFSHrvqxkk3vMcmyxjeIZOFCA8m6Z9N+cwkipJpg2K7IVXLWlX/HoDS1I0MMuWLfFSGEVIkO/Vi4m4Zk4QKAu+y8koULjC1ZKJ0wk0WqiE+uErOuLLmydwy6Te3suyKEkAqR1Y9lN70nJMvsLIxLVnjX7pMslgtJ1bDLgiiL23KFm410uUruGHTlin1XhBBSAdL6sdymd5EsGd8Qkyx1IcEFJUuy0PjO3YWk7OBGAVnZpFzFB4nipiOvXKH3EeX5UK7Yd0UIIdUA/Vj18LzCTpIlOwtdycKFJCZZ6kLjkyyMcOCcLFJWIFfIxibLgn65ws2Hb9YVNpBgI4ktV3ZTO8r2S0abO9h3RQghZWfs6V+TpvdQsp7NLVn2INKsTJbsLsQwUk58J2XDntAel6t2WdCe0i5ypccxeOQKG0n0jkFbrtTNTdTUPtp8t/l0EkIIKTXqbhl3zbrp3ZEsGd+QlKyw9NFJstwRDjhWh2cXkrKArCuyryJXeC+7ciWZKxnHYMtVOI7BI1fq5sWzY3D2jJHGueZTSQghpBKou2bcPduSJeMbbMnChSKvZOHi45MsHBA9OXXMXMIIGUxwIyAHN9tyhfd0WlkQn4OEXKnPSzjrKilX2GACucKGkzNqzfPNp5EQQkilWLHlvYnxDZZk6RlZOSULFx3fnCxIFi5WkKxnJo+aSxkhg8WevSd0ttUrV+o9jRsIV66izJWKpFxZg0QtuZIdg9jVaz6FhBBCqgjuolGqwF11TLLUhQEXiDyShYtN2jBSXKREstAw/GjjkLmkETIYPLd7Vt8AQK7wXk2TK9xIJOQqylwlp7TLOAZXrs6sN0fMx48QQkiVsWdk+QeRpkuWf05WKFkoq/gkC7uzOMaBLDTYKbj+yQP6PWnLFd6zaXKF97qv58o3pR1yFY5j4KwrQggZWharu2pIFi4EuNvOJ1meOVkiWSoSkqUCkoWL2efWTOmyDCELAXa33v7gdGzGlS1XeO/iRiEpV+GNha/nCnKF3sU0ucIcOvNxI4QQMkwsrrVWyviG4iUrOSuLJUOyELR2Ho31W9kzrmy5wnsY72VXrpC9xXvf13OVKlejrQ0cJEoIIUOMPe09TbLS5mShbOJKFjIAIlm4eIlkuSXDI7MsGZL+gpLgus3hsTduv1VsxpUlV3gv++QK733caKTLFae0E0IIsQmnvW9Ik6y0OVkol7gHROPOXyTLnZXllgwvXzMV7Jo+bi6FhBQLSoIYHuqWBPE+1P1WIlfqverKFbKzXrlSnwHccPgyVzKlfWm9NY7hvubTRQghZKiBZNVa9yYkS4U7JwuSlTggWgUagUWy2rOyOpcMN21hyZAUC8aDyC5BX0nQHcPgl6vJVLnCjYevLEi5IoQQ4gU7nkSyfHOyUiVL3emLZOEipSXLlAztvqy0kuG31r/KkiGZM/ZhzZ1KgnYzeyRX6j3syhXe665cIbuLzwZ7rgghhOQGM3sSIxyMZKEskpSs5x3J8vdldSoZogn58W2HzaWSkO7AyQGYyu6WBKOslciVei9K1qrdzG7GMKjAe9mWK7zX8Z535QpZ3kiusFuQckUIIaQTvjlZKIegLGJLFhp+satKJMs3K6vbkiG20nOcA8kLzhLEpgnJWvlKgmHWyl8STI5hCAeI2nKF7C1uMHxytZhzrgghhHRDbOK7upjYB0RDsnBHj91UIlnS/I7yit2XhYtYNyVDES3s/uJwUpIGyoHo30OvlZu1yl0SdJrZ3QGiMblS7/1E5qrWWG4+LoQQQkh+lqzY+l73gGivZKmQWVnJvqz8JUNbtHDRxHBSnmdIXFAOrP3wlcysVd6SYKyZXYU7QNSWK2RzccPxltHW7BKeLUgIIWROjDbfvWS0uaMtWds8kuXvy+qmZGiLlt2bhYsoyobYdk+GG2yEWPPI/rhYpWat8pcE483syRlXtlwhq4vsrvl0EEIIIXNgZNvbl4y2tsoOQ5Es36ysbkuGks0S0bJ7s9yy4U/HD7JsOISgHPhY81DwodRyYHv8QixrpaLbkqArVzJANJSrrTPqZuPd5lNBCCGEFMDY07+GCdUiWe6srDwlQ1zc0kuGJpulgmVDIjy3ezZ/OdD0WiWzViklQcy3suRK91up9zFuHEK5ag8QRRZ3UX3inebTQAghhBQIBpKOtgeS+nYY9lQyTMlmZZUNIVoY64DsBqkekOiEWOUsB9pZq25Lgr5m9qU4+mZk29vNp4AQQgjpD0tqrSviOwx7LRkme7NwkYx2GqoIJSu9bAjRQvmIpcPyA1mGWMk8K79Y+cuBaVmrnkqCllwtua61ijOuCCGEzBvoRUFfFsoneUqGuKjZJcMom6VFK7wo4uLoLRuqC2pa2VBEC4NKsW2fE+HLB8QK2UjIckexUhFmreLlQF+vlWStMkuCyFq5JUHTb8VmdkIIIQsD+rJ6KBlKNsvuzeqlbOgTLTRCr3/yAEWrBCDrCCnuJFZ2OdDOWrlN7MiIur1WdtYqLAnGs1apJcFrm28173JCCCFkYei6ZGg1wHdbNswrWhhAed9jr+lJ32SwgPxCrJB1zCNWUTmwQxO7lAPtXis3a9WxJDjaWmne1oQQQsgAUJ94Z1rJMC2bZfdm5SkbimhlZrRU4GKNwMUbgcOk0dvDPq2FpbXzaHDPpv3Be83fJU8p0CdWucqBKtpZqw4lQZ21YkmQEELIoIJdhvXWmrSSoZ3NsnuzZKehnc3KKht2K1p2+RAXeGz9J/MDzpXEsUeSrepKrNTfOE2sssqBWVkrlgQJIYSUFhwj4pYMfdmstLJhMpuVLlode7QQTvkQgb4fXPg5Ib54UJZFCVB2A7pShb9J72KVUQ40WSu8p+xeq3jWyjryBiXBemvMvG0JIYSQEmBKhnY2S84y1L1ZlmhllQ2jJnhHtBC4+EqPll+08skW5i1hFxsb43sH5VeUYb+1fm+iBOhmq3xihb8dxErEOUus7HJgsondKgearBXec3bWSpcER7dOnTHSONe8WwkhhJASEZYMx94y2s5mSW9WN2XD7kWrPUfLzWpFsmVEy5YtiAEEAXO1UNoi2UzPnNBiuuaR/dExNp2kCtI7F7FqlwM7N7FLOdAevxBmrZqrsQPWvEsJIYSQkhKeZbjBzWblLxumNcLHRUuXD82F2hattKxWlmwhIA3ffWiflgjIxLCDcupT24/oPjYZrSAhYoXfpVsCdKUqFKt2GdAvVuHfOFWsTNYqTznQ7rVasmLre827khBCCKkGi+uti1CacXcaZpUNRbTcjJYtWtIML7Jli1Ze2dKihXBkyxYuNGojWwPhGobeLfRS2UIlpT9bqCKp8mSrRKraYxbCbJWIFf5GECsRZJ9Y2aVAW6y6KQe+ZXTrzJJaY7l5GxJCCCEVJDzPcOVbrLKh2wQfLxt2Fi2ZoeUVLbd8iBDRQkSy1ZYDiEIe4YJ0QD7Q0D05dazUWS4I467p4/pnwfwwNKjnEapcUpWRrcotVupv385YdS4HtrNWrTXcIUgIIWR4qE+8c+loa2NaE7yUDX2iJT1auPCmiZY9R8uWLbnIS1bLL1u9CRcCUgI5QS/XT8cP6mwXxGUQGujRiI7XgqwURAqvEQ3+eM22TCF8QmWX/kSoRKpErPC7DMUqj1SFc6xErGRXYF6xcsuBsSb2+tZxlgMJIYQMLWfUG8uyyoa2aLmlwyzRkvIhMiN5ZUvkQGSro3AZ8RARsaXLJ16I2x98VZcZITh2QHogP3ZkSZnIkh3Yxec+7j0/2x/t7HMlCiGv1f4ZuhEqyVSFUuUvAYpY4W+QyFapcMUKf1OIFf7GncTKzlrpJvbRrTNn1psj5u1FCCGEDDE40/C61ipks3y7Dd3SYZZooQk6S7bkIm+LVqJfC2GJg53d8glXTLoQHvFC+MTLDpGgXsP3mAifRCFckZLoSqhMpipNqkSs3GyVNK5ni1WYvcTfPEuspBz4ptHWvSwHEkIIIQ5LRpvvVrFWREsyWlHpMEu0VEC0ZI5WvE8rPuYhq4RoZ7a6FS6JVPFCpMiXGyJFncL3vXZEEuWIlP0aEe3X3/658gjVXKUKfyuIFf52aWKle6wyxGrp6NaNnGlFCCGEdACihWxEHtHCBRiihQtyTLRMQ3wyq5UuW52ES8TCFS5bumzxcuXLlRqRHTsiEesyfI/lPl9bojwihXB+pjxC5UpVKFaWVKmIlwDDMQuSrdJipf5mIlb4W6aJFd4DUSlQZ6y2bqBYEUIIId0ysu3t2AXmEy1ccNNEK5HVSpWteAkxlK12GbEr4UIoGckSL798xbNfvnBFKSlLbrQf236+bJEKZQo/R/dCFc9UZWWrojELUbaq3V8FscLfUouV+tumiRWynJBw8y4hhBBCSE9gUCl6tDDaQV1gIVq+YaUyR0vKh6FshRdy6dVKKyFq2TKZrTThErFwhcvu4ZKIyZdHvCS0gCFsAZpLmMfzPZdPomyRQohM5RUqN1OVV6qkDIi/E/5mrljFdgUasYJsv6k+8U7zriCEEEJIIVzbfGs4Q2vrjE+0dPnQ7Dz0ZbU6ydZchAshQmKLlytftthEmS+EljCEnVHqJqzHMI9pP5f9GhBZIiXRSajcLFUoVdklQK9UxfqrHLFSUv0mHG2jJNu8CwghhBDSF7DrUJ9x6IpWftnSoqVCi5YSAchWu4yYIlxGLlzhsnu4JGxREYHxyZcrYEWE/djR86WIlPu68bPoHqouhUoyVZFUqZBslUiV9FYh02hnq0KxCv+Gtlgha8ldgYQQQsh8g6nwtcbypaOtHXaflshWJFoqtGipwAXeW0JEKCnoSrh80oWIxCspX7bc2GFL2FzC99gI+zUg0kRKIo9QxbJUCPO7zJQqT7ZKdgTqAaGjW6cgzzyMmRBCCBkAMLUbpaRYVkuF3RQfy2p5ZKuTcIlYuMIl0VG8EI58+bJfcw15XHkeLVEI8xqSEiXR/lm6FSq7/IfQUqUij1QhW4X+qjNqzfPNn5MQQgghA8WNL7wZ0+GjeVpdyFYyu5UvwyXSJTsUXflyxcuWLztiItZD+B5Tnq8tUu3X5YoUfgZbpmyh0lJlfhdpQmVLlRYr83sOxSrMLGqpkqb10a0b1d/pMmarCCGEkDIRNsVfgXPp0kqIkWwhehAuka408fLJly04EqGE2WFnlrIi/n2+x45LVFKk7N6pSKYQ5mftVqjSpAqy++brtm5dWm+OLGXTOiGEEFJ+sL1f70C8rrUDF3pbtuzMli1cIg5pwuVKl4Sd7XLFy5UvRChgbRFLi7gk+SJ8DPfxET6REkEUkXJlyhaqqJfKFipT+msLVVuq3L4qlG85u4oQQgipMJj+jZ4fXPjtzFYvwmVLV1K84vLly3rZoUXMDREjNzxf63tMn0R1EimRqZ6EymSq0Au3dLR175vqrYvMr50QQgghw4LJbF0BGYAUxEqJHYRLSoq2eEFIfOLll69QwNwM2FxCHk8EypYoV6RsidJh/Sz42ZIlv05CtXXtm2qN5cxUEUIIISQG5CAc/bB1LXa3pQtXUroi8UJY8uWKl4Rki2wJSwtXkLJCHtd9Plei0kSqLVMUKkIIIYT0AYx/OLPeHMHBwlq2LOGKpAuRIl4J+YLQOJkvCS1ibogYueH7WhXuY8rz2RKVFKnwtSNsmYoLVWsWvwM0qON3Yn49hBBCCCFzB/1bGISJpu2lo1s3RmVFI14J+TLiIuLlypeELT9zCd9jy/OKSLkSFRMpFXqnnx6h0FqpM1QUKkIIIYTMO5i9pcWrsQzyhdLZ0utamyErvqyXhJ39EhFLi1DQ/P8mIY8TPa4K+/lEoiQj9WYlUUvrW9fgNWPIJ0t9hBBCCCkFmPd0xnWNc1FmxNl6yAwhIDfS4xUTMTdMViwRvq9V0X681g4tUEailiqJUgJ1GV4LB3sSQgghZCjQIjbSOFeHkqCuwnwfh3cSQgghhBBCCCGEEEIIIYQQQgghhBBCCCGEEEIIIYQQQgghhBBCCCGEEEIIIYQQQggZXhYt+v8B06UJJ/Uc9p4AAAAASUVORK5CYII=;" vertex="1" parent="1">
          <mxGeometry x="252" y="981" width="112.38" height="59" as="geometry" />
        </mxCell>
        <mxCell id="1yYehOF_DNbkC2h0I6DK-81" value="Azure Monitor" style="text;whiteSpace=wrap;html=1;fontColor=#1A1A1A;align=center;verticalAlign=middle;" vertex="1" parent="1">
          <mxGeometry x="302" y="992.0799999999999" width="150" height="40" as="geometry" />
        </mxCell>
        <mxCell id="1yYehOF_DNbkC2h0I6DK-83" value="" style="edgeStyle=orthogonalEdgeStyle;rounded=0;orthogonalLoop=1;jettySize=auto;html=1;entryX=0;entryY=0.5;entryDx=0;entryDy=0;strokeColor=#736CA8;fontColor=#1A1A1A;" edge="1" parent="1" source="1yYehOF_DNbkC2h0I6DK-69" target="1yYehOF_DNbkC2h0I6DK-82">
          <mxGeometry relative="1" as="geometry">
            <mxPoint x="81" y="870" as="sourcePoint" />
            <mxPoint x="322" y="869" as="targetPoint" />
          </mxGeometry>
        </mxCell>
        <mxCell id="1yYehOF_DNbkC2h0I6DK-82" value="" style="shape=image;verticalLabelPosition=bottom;labelBackgroundColor=default;verticalAlign=top;aspect=fixed;imageAspect=0;image=https://images.squarespace-cdn.com/content/v1/500a3673c4aa9263a8955641/1551919759882-YYD6RAN4DK9LW11I4P02/RBAC.png;" vertex="1" parent="1">
          <mxGeometry x="179.16000000000008" y="846" width="49.41" height="46" as="geometry" />
        </mxCell>
        <mxCell id="1yYehOF_DNbkC2h0I6DK-84" value="RBAC" style="text;html=1;align=center;verticalAlign=middle;resizable=0;points=[];autosize=1;strokeColor=none;fillColor=none;fontColor=#1A1A1A;labelBackgroundColor=none;" vertex="1" parent="1">
          <mxGeometry x="173.86" y="890" width="60" height="30" as="geometry" />
        </mxCell>
        <mxCell id="1yYehOF_DNbkC2h0I6DK-85" style="edgeStyle=orthogonalEdgeStyle;rounded=0;orthogonalLoop=1;jettySize=auto;html=1;exitX=0.5;exitY=0;exitDx=0;exitDy=0;entryX=0.544;entryY=-0.032;entryDx=0;entryDy=0;entryPerimeter=0;strokeColor=#736CA8;fontColor=#1A1A1A;" edge="1" parent="1" source="1yYehOF_DNbkC2h0I6DK-82" target="1yYehOF_DNbkC2h0I6DK-74">
          <mxGeometry relative="1" as="geometry" />
        </mxCell>
      </root>
    </mxGraphModel>
  </diagram>
</mxfile>
